<svg id="Layer_1" data-name="Layer 1" xmlns="http://www.w3.org/2000/svg" viewBox="0 0 1600 1200"><defs><style>.cls-1{fill:#fafbfd;}.cls-2{fill:#2B6CB0;}.cls-3{fill:#fff;}.cls-4{opacity:0.2;isolation:isolate;}</style></defs><title>features</title><g id="Enviroment"><polygon points="467.29 130.24 457.05 130.24 457.05 120 452.96 120 452.96 130.24 442.73 130.24 442.73 134.33 452.96 134.33 452.96 144.56 457.05 144.56 457.05 134.33 467.29 134.33 467.29 130.24"/><polygon points="207.34 317.52 197.11 317.52 197.11 307.29 193.01 307.29 193.01 317.52 182.78 317.52 182.78 321.62 193.01 321.62 193.01 331.85 197.11 331.85 197.11 321.62 207.34 321.62 207.34 317.52"/><path d="M133.2,745.38a4.69,4.69,0,0,1-.62,0l.26-4.08c.71,0,17.42.85,20.72-17.31,4-22,25.15-18.47,25.36-18.43l-.72,4c-.71-.12-17.35-2.82-20.62,15.13C154,744.36,136.72,745.38,133.2,745.38Z"/><path d="M1500.31,683.9l-4.06-.46,2,.23-2-.22c.07-.72,1.66-17.51-16.47-19.57-22-2.5-22.28-23.37-22.28-23.58h4.09c0,.71.31,17.43,18.65,19.52C1502.47,662.34,1500.34,683.68,1500.31,683.9Z"/></g><g id="Lamp"><path class="cls-1" d="M650.39,325c0-30.63-25.77-55.64-56.11-57.24v-.09c-.48,0-1,0-1.45,0s-1,0-1.46,0v.09C561,269.4,535.26,294.41,535.26,325a55.85,55.85,0,0,0,15.93,38.74h0C569.9,385.34,570.65,416,570.65,416H615s.75-30.68,19.46-52.24h0A55.84,55.84,0,0,0,650.39,325Z"/><path d="M617,418.07H568.66l0-2c0-.3-1-30.18-18.94-50.91A57.92,57.92,0,0,1,533.22,325c0-30.37,25-56.52,56.11-59.16v-.14l2-.07,1.45,0,1.45,0h2.05v.22c31.12,2.64,56.11,28.79,56.11,59.16A57.87,57.87,0,0,1,636,365.16c-18,20.77-18.92,50.61-18.93,50.91ZM572.6,414h40.46c.51-7.28,3.44-32.6,19.87-51.53l.07-.08A53.81,53.81,0,0,0,648.35,325c0-28.86-24.3-53.63-54.17-55.2l-1.15-.06h-.81l-.74.07c-29.87,1.57-54.17,26.34-54.17,55.2a53.81,53.81,0,0,0,15.35,37.32l.07.08C569.16,381.37,572.09,406.69,572.6,414Z"/><path class="cls-1" d="M613.33,412.59H572.08v32.62h4.49V450a9.13,9.13,0,0,0,9.13,9.13h14.47A9.13,9.13,0,0,0,609.3,450v-4.78h4Z"/><path d="M600.17,461.17H585.7A11.2,11.2,0,0,1,574.52,450v-2.73H570V410.54h45.34v36.72h-4V450A11.2,11.2,0,0,1,600.17,461.17Zm-26-18h4.5V450a7.08,7.08,0,0,0,7.08,7.08h14.47a7.08,7.08,0,0,0,7.08-7.08v-6.82h4V414.64H574.12Z"/><rect class="cls-1" x="568.47" y="411.25" width="49.32" height="7.62" rx="3.81" ry="3.81"/><path d="M614,420.92h-41.7a5.86,5.86,0,1,1,0-11.71H614a5.86,5.86,0,1,1,0,11.71Zm-41.7-7.62a1.77,1.77,0,1,0,0,3.53H614a1.77,1.77,0,0,0,0-3.53Z"/><rect class="cls-1" x="568.47" y="425.34" width="49.32" height="7.62" rx="3.81" ry="3.81"/><path d="M614,435h-41.7a5.86,5.86,0,0,1,0-11.72H614A5.86,5.86,0,1,1,614,435Zm-41.7-7.62a1.76,1.76,0,1,0,0,3.52H614a1.76,1.76,0,0,0,0-3.52Z"/><rect class="cls-1" x="568.47" y="439.27" width="49.32" height="7.62" rx="3.81" ry="3.81"/><path d="M614,448.94h-41.7a5.86,5.86,0,1,1,0-11.71H614a5.86,5.86,0,1,1,0,11.71Zm-41.7-7.62a1.77,1.77,0,1,0,0,3.53H614a1.77,1.77,0,0,0,0-3.53Z"/></g><g id="Gear"><path class="cls-1" d="M1381.85,341.34a54.63,54.63,0,0,0-2-14.5l9.92-11.28-9.35-15.86-14.17,3.61a54.19,54.19,0,0,0-25.21-14.55l-4.63-14.14H1318l-4.12,14.17a54.26,54.26,0,0,0-25.15,14.6l-14.46-3.69L1265,315.56l10.21,11.6a54.47,54.47,0,0,0,.15,28.92l-10,10.33,9.18,16,14.33-3a54.21,54.21,0,0,0,24.73,14.4l4.78,14.44,18.42-.06,4.08-14.22a54.16,54.16,0,0,0,25.37-14.56l14.34,3,9.17-16-10-10.34A54.24,54.24,0,0,0,1381.85,341.34Zm-54.44,30a30.21,30.21,0,1,1,30.2-30.21A30.2,30.2,0,0,1,1327.41,371.38Z"/><path d="M1316.92,410.3,1312,395.48a56.32,56.32,0,0,1-23.79-13.85l-14.71,3.06-10.68-18.59L1273,355.49a56.85,56.85,0,0,1-.13-27.79l-10.47-11.9,10.89-18.47,14.81,3.79a56.23,56.23,0,0,1,24.13-14l4.23-14.55h21.44l4.74,14.49a56.31,56.31,0,0,1,24.24,14l14.52-3.7,10.89,18.46-10.19,11.57a56.73,56.73,0,0,1,0,28.12l10.21,10.61-10.67,18.59-14.72-3.06a56.27,56.27,0,0,1-24.39,14l-4.18,14.57Zm-27.36-33.13.78.79a52.18,52.18,0,0,0,23.79,13.86l1.07.28,4.67,14.09,15.4-.05,4-13.87,1.14-.29a52.15,52.15,0,0,0,24.41-14l.78-.8,14,2.92,7.67-13.35-9.7-10.08.32-1.13a52.48,52.48,0,0,0,.06-28.13l-.29-1.07,9.68-11-7.83-13.26-13.81,3.53-.83-.84a52,52,0,0,0-24.26-14l-1.09-.28L1335,276.67h-15.4l-4,13.81-1.13.29a52.18,52.18,0,0,0-24.2,14.05l-.82.84-14.12-3.6-7.82,13.26,10,11.32-.29,1.06a52.56,52.56,0,0,0,.15,27.82l.32,1.13-9.7,10.08,7.67,13.35Zm37.85-3.74a32.26,32.26,0,1,1,32.25-32.25A32.29,32.29,0,0,1,1327.41,373.43Zm0-60.42a28.17,28.17,0,1,0,28.16,28.17A28.2,28.2,0,0,0,1327.41,313Z"/><path class="cls-1" d="M1432.82,440.09a35,35,0,0,0-1.25-9.27l6.34-7.22-6-10.14-9,2.31a34.66,34.66,0,0,0-16.12-9.3l-3-9H1392l-2.63,9.06a34.75,34.75,0,0,0-16.08,9.33l-9.24-2.36-6,10.14,6.52,7.42a35.1,35.1,0,0,0,.1,18.49l-6.36,6.61,5.87,10.21,9.16-1.91a34.7,34.7,0,0,0,15.81,9.21l3.06,9.23,11.77,0,2.61-9.09a34.6,34.6,0,0,0,16.22-9.31l9.17,1.91,5.87-10.21-6.37-6.61A34.51,34.51,0,0,0,1432.82,440.09ZM1398,459.3A19.32,19.32,0,1,1,1417.33,440,19.32,19.32,0,0,1,1398,459.3Z"/><path d="M1390.77,484.91l-3.18-9.61a36.82,36.82,0,0,1-14.86-8.65l-9.55,2-7.37-12.82,6.63-6.89a37.06,37.06,0,0,1-.08-17.35l-6.79-7.73,7.52-12.74,9.6,2.45a36.81,36.81,0,0,1,15-8.73l2.75-9.44h14.79l3.08,9.4a36.7,36.7,0,0,1,15.13,8.73l9.42-2.41,7.52,12.74-6.61,7.52a36.85,36.85,0,0,1,0,17.55l6.63,6.9-7.37,12.82-9.55-2a36.77,36.77,0,0,1-15.23,8.76l-2.71,9.45Zm-16.71-22.72.78.79a32.67,32.67,0,0,0,14.88,8.67l1.07.28,2.94,8.88,8.75,0L1405,472l1.14-.29A32.63,32.63,0,0,0,1421.4,463l.78-.79L1431,464l4.36-7.59-6.11-6.35.31-1.13a32.83,32.83,0,0,0,0-17.59l-.29-1.06,6.1-6.93-4.45-7.54-8.71,2.22-.82-.84a32.6,32.6,0,0,0-15.17-8.76l-1.09-.28-2.85-8.69h-8.75l-2.53,8.7-1.13.29a32.68,32.68,0,0,0-15.13,8.78l-.82.85-8.9-2.27-4.45,7.54,6.28,7.13-.29,1.06a32.81,32.81,0,0,0,.09,17.4l.32,1.13-6.11,6.34,4.36,7.59Zm24-.85A21.36,21.36,0,1,1,1419.37,440,21.39,21.39,0,0,1,1398,461.34Zm0-38.62A17.27,17.27,0,1,0,1415.28,440,17.28,17.28,0,0,0,1398,422.72Z"/></g><g id="Money"><circle class="cls-1" cx="191.56" cy="494.74" r="60.89"/><path d="M191.56,557.68a62.94,62.94,0,1,1,62.94-62.94A63,63,0,0,1,191.56,557.68Zm0-121.79a58.85,58.85,0,1,0,58.85,58.85A58.92,58.92,0,0,0,191.56,435.89Z"/><path class="cls-2" d="M187,529.71v-8.14c-5.74-.26-11.32-1.8-14.57-3.69l2.57-10a30.17,30.17,0,0,0,14.23,3.78c4.88,0,8.23-1.89,8.23-5.32,0-3.26-2.75-5.31-9.09-7.46-9.17-3.08-15.43-7.37-15.43-15.68,0-7.55,5.32-13.46,14.49-15.26v-8.14h8.4v7.54a31,31,0,0,1,12.43,2.83l-2.49,9.68a28.48,28.48,0,0,0-12.34-2.91c-5.57,0-7.37,2.4-7.37,4.8,0,2.83,3,4.63,10.28,7.37,10.2,3.6,14.32,8.32,14.32,16s-5.4,14.14-15.26,15.86v8.74Z"/></g><g id="Plant"><path class="cls-1" d="M266.34,1096.3s5-22.27-7.42-43.91c0,0-6.8-21,4.33-40.21s0-40.82-13-43.91-28.45,7.42-32.16,22.26-.62,25.36-22.89,36.5-21.34,69.27-21.34,69.27Z"/><path d="M267.54,1097.79H172.41l0-1.47c0-2.41-.68-59.2,22.17-70.62,17.28-8.65,18.61-16.45,20.46-27.25.45-2.63.91-5.35,1.64-8.28,3.89-15.53,20.07-26.66,34-23.35,6.46,1.54,12.56,7.36,15.93,15.2a34.2,34.2,0,0,1-2,30.91c-10.22,17.6-4.79,37.05-4.25,38.86a68.14,68.14,0,0,1,7.51,44.83Zm-92.18-3H265.1c.77-4.79,2.87-23.58-7.47-41.69l-.13-.28c-.28-.88-6.87-21.88,4.46-41.4a31.26,31.26,0,0,0,1.84-28.25c-3-7-8.32-12.15-13.88-13.48-12.39-2.94-26.87,7.15-30.38,21.19-.7,2.81-1.16,5.48-1.6,8.06-1.84,10.77-3.43,20.08-22.06,29.4C176.62,1038,175.41,1085.79,175.36,1094.81Z"/><path d="M219.45,1097.23l-2.71-1.24c18.26-39.86,31.91-127.69,32-128.57l2.94.45C251.6,968.76,237.88,1057,219.45,1097.23Z"/><circle cx="315.28" cy="1016.98" r="9.67"/><path d="M266.37,1097.43l-1.29-3.49c29.16-10.72,46.35-57.18,46.52-57.65l3.5,1.27C314.38,1039.54,297.13,1086.13,266.37,1097.43Z"/><rect x="230.94" y="976.83" width="2.98" height="45.28" transform="translate(-334.65 144.26) rotate(-20.46)"/><rect x="224.13" y="996.95" width="2.98" height="49.68" transform="translate(-360.07 154.65) rotate(-21.58)"/><path class="cls-2" d="M330.29,1019.6s-15-7.83-29.93-3.09c0,0-4.08,21.88,11.13,23.51C328.81,1041.87,330.29,1019.6,330.29,1019.6Z"/><circle cx="353.85" cy="1010.15" r="8.8"/><path d="M284.28,1083.31s8.66-12.37,7.42-22.26-7.42-13-9.89-12.38-6.81,1.86-4.95,11.14S284.28,1083.31,284.28,1083.31Z"/><rect x="212.26" y="1078.27" width="56.94" height="2.98" transform="translate(-592.29 351.81) rotate(-36.28)"/><rect x="236.62" y="1085.09" width="33.35" height="2.98" transform="translate(-585.97 351.42) rotate(-35.66)"/><path class="cls-1" d="M136.76,1002s6.19-13,0-29.69-10.51-68.66,26.6-66.18,39.58,51.95,35.87,77.31,1.86,42.68,8,56.9,26,24.75,22.89,56.29H104.6S98.41,1046.51,136.76,1002Z"/><path d="M231.51,1098.1H103.28l-.16-1.31c-.06-.52-1.54-13,1.71-31.06a136.26,136.26,0,0,1,30.66-64.56,39.93,39.93,0,0,0-.12-28.37c-4.42-11.93-8-42.16,3.85-58,5.57-7.46,13.73-10.9,24.24-10.19a34.35,34.35,0,0,1,25.43,13c13.42,16.61,14.75,45.94,11.82,66-3.65,24.88,1.66,41.66,7.93,56.09,1.75,4,4.75,7.89,7.93,12,7.71,9.91,17.31,22.25,15.07,45Zm-125.55-3H228.8c1.63-20.75-7-31.81-14.58-41.59-3.3-4.23-6.41-8.23-8.31-12.61-6.14-14.12-11.91-32-8.15-57.72,2.85-19.47,1.63-47.85-11.18-63.71a31.48,31.48,0,0,0-23.32-11.9c-9.44-.62-16.73,2.4-21.66,9-11.14,14.92-7.67,43.76-3.44,55.18,6.33,17.09.21,30.29,0,30.85l-.09.18-.13.15C103.85,1042.48,105.36,1087,106,1095.12Z"/><path d="M342.87,1043.38s19.31,1.54,22.38-3.07-5.3-8.69-16.27-1.74C347.4,1039.57,342.87,1043.38,342.87,1043.38Z"/><path d="M336.89,1053.19s18.56,5.52,22.52,1.65-3.37-9.6-15.55-5.08C342.11,1050.41,336.89,1053.19,336.89,1053.19Z"/><path d="M295.93,1097.77l-2.27-2.94c34.53-26.66,56.81-65.85,57-66.24l3.25,1.82C353.71,1030.81,331.08,1070.64,295.93,1097.77Z"/><path d="M165.13,1096.57l-2.93-.54c23.77-128,.32-189.08.08-189.68l2.77-1.1c.25.62,6.14,15.71,9.15,47C177,980.93,177.62,1029.31,165.13,1096.57Z"/><rect x="167.49" y="946.36" width="34.61" height="2.98" transform="matrix(0.66, -0.75, 0.75, 0.66, -651.11, 464.29)"/><rect x="167.85" y="965.08" width="38.45" height="2.98" transform="translate(-662.55 469.19) rotate(-48.7)"/><path class="cls-2" d="M367.5,1012.54s-12.78-7.47-27.21-2.82c0,0-3.72,19.89,10.12,21.38C366.16,1032.78,367.5,1012.54,367.5,1012.54Z"/><rect x="149.48" y="1001.26" width="2.98" height="61.34" transform="translate(-606.65 315.21) rotate(-38.27)"/><rect x="144.41" y="1011.45" width="2.98" height="69.14" transform="translate(-624.72 323.81) rotate(-38.92)"/></g><g id="Plant-2" data-name="Plant"><circle cx="1364.88" cy="884.25" r="19.07"/><path d="M1336.91,954.77s-34.25-24.3-32.94-36.24,20.91-7.08,29.47,19.76C1334.67,942.14,1336.91,954.77,1336.91,954.77Z"/><path d="M1333.2,979.4s-38.55-16.64-39.75-28.59,19-11.28,32.93,13.19C1328.39,967.52,1333.2,979.4,1333.2,979.4Z"/><path d="M1348.4,1094.89c-32.3-100.14-7.93-174.51-6.87-177.63l7.64,2.58c-.25.74-24.53,75.11,6.91,172.57Z"/><path class="cls-2" d="M1338.87,869.22s31.62,5.37,49.16,33.19c0,0-21.51,38.23-46.57,21.45C1312.93,904.75,1338.87,869.22,1338.87,869.22Z"/><path class="cls-1" d="M1501.73,1092.84s8-36.18-12.06-71.35c0,0-11.05-34.18,7-65.33s0-66.33-21.11-71.36-46.23,12.06-52.26,36.18-2.21,58.14-38.4,76.23-33.46,95.63-33.46,95.63Z"/><path d="M1504.32,1096.07h-156l-.11-3.11c-.11-3.25-2.35-79.84,35.25-98.64,27-13.52,30.42-35.86,33.68-57.47.88-5.87,1.72-11.41,3-16.65,6.41-25.64,33.17-44,56.14-38.54,10.75,2.56,20.88,12.2,26.44,25.17a56.36,56.36,0,0,1-3.29,50.95c-16.26,28-7.82,59.09-6.84,62.42,20.25,35.74,12.56,71.82,12.22,73.34Zm-149.65-6.45H1499c1.3-8.66,4.08-38.13-12.15-66.53l-.27-.61c-.47-1.45-11.28-35.91,7.32-67.94a50,50,0,0,0,2.94-45.17c-4.77-11.12-13.21-19.34-22-21.43-19.74-4.7-42.79,11.43-48.39,33.82-1.23,5-2,10.34-2.91,16-3.34,22.15-7.13,47.26-37.17,62.29S1354.65,1075.2,1354.67,1089.62Z"/><path d="M1426.27,1094.69l-5.86-2.69c29.62-64.67,51.78-207.26,52-208.7l6.38,1C1478.57,885.73,1456.27,1029.21,1426.27,1094.69Z"/><rect x="1443.4" y="898.71" width="6.45" height="73.58" transform="translate(-235.72 564.56) rotate(-20.46)"/><rect x="1432.33" y="931.4" width="6.45" height="80.73" transform="translate(-256.82 596.23) rotate(-21.58)"/><rect x="1413.86" y="1062.73" width="92.52" height="6.45" transform="translate(-347.69 1070.99) rotate(-36.29)"/><rect x="1453.43" y="1073.81" width="54.19" height="6.46" transform="translate(-350.28 1065.83) rotate(-35.68)"/></g><g id="Floor"><rect x="103.57" y="1095.07" width="1449.16" height="4.09"/></g><polygon points="1031.02 68.4 1023.62 75.79 1016.23 68.4 1013.27 71.36 1020.66 78.75 1013.27 86.15 1016.23 89.1 1023.62 81.71 1031.02 89.1 1033.97 86.15 1026.58 78.75 1033.97 71.36 1031.02 68.4"/><path d="M1039.15,191.88a14.64,14.64,0,1,1,0-20.7A14.65,14.65,0,0,1,1039.15,191.88Zm-17.75-17.74a10.46,10.46,0,1,0,14.79,0A10.48,10.48,0,0,0,1021.4,174.14Z"/><polygon points="1375.1 727.31 1375.1 737.77 1364.64 737.77 1364.64 741.95 1375.1 741.95 1375.1 752.41 1379.28 752.41 1379.28 741.95 1389.73 741.95 1389.73 737.77 1379.28 737.77 1379.28 727.31 1375.1 727.31"/><path d="M1468.16,808.88a14.64,14.64,0,1,1-14.64-14.64A14.65,14.65,0,0,1,1468.16,808.88Zm-25.09,0a10.46,10.46,0,1,0,10.45-10.46A10.47,10.47,0,0,0,1443.07,808.88Z"/><path class="cls-3" d="M768.85,1098.69l-30.93.86a21.57,21.57,0,0,1-13.24-3.72c-3.36-2.49-4.9-5.87-4.22-9.26l6.08-30.59c1.15-5.77,8.22-10.13,16.82-10.37l17.08-.47c8.59-.24,15.89,3.72,17.36,9.42l7.76,30.21c.87,3.35-.49,6.81-3.7,9.49A21.56,21.56,0,0,1,768.85,1098.69Z"/><path d="M736.81,1101.11a23.15,23.15,0,0,1-13-4c-3.91-2.9-5.66-6.84-4.87-10.83l6.09-30.59c1.28-6.47,9-11.35,18.28-11.61l17.08-.47c9.31-.25,17.25,4.19,18.89,10.58l7.76,30.21c1,3.94-.52,8-4.21,11a23.28,23.28,0,0,1-14,4.79l-30.91.85C737.58,1101.1,737.19,1101.11,736.81,1101.11Zm24.37-54.45h-.7l-17.08.47c-7.88.22-14.34,4.06-15.35,9.14L722,1086.87c-.55,2.78.77,5.6,3.64,7.73a20,20,0,0,0,12.24,3.41l31-.85a20.17,20.17,0,0,0,12.09-4.12c2.69-2.25,3.85-5.14,3.15-7.89l-7.77-30.2C775.06,1050.08,768.76,1046.66,761.18,1046.66Z"/><path class="cls-3" d="M957,1097.82l-30.93.85a21.56,21.56,0,0,1-13.24-3.71c-3.36-2.5-4.9-5.88-4.22-9.27l6.08-30.59c1.15-5.77,8.22-10.13,16.82-10.37l17.08-.47c8.59-.24,15.89,3.73,17.36,9.43l7.76,30.2c.86,3.35-.49,6.81-3.7,9.49A21.57,21.57,0,0,1,957,1097.82Z"/><path d="M925,1100.23a23.22,23.22,0,0,1-13-4c-3.91-2.91-5.67-6.84-4.87-10.84l6.09-30.59c1.28-6.46,9-11.34,18.27-11.6l17.09-.47c9.29-.26,17.24,4.19,18.88,10.58l7.77,30.2c1,4-.52,8-4.21,11a23.23,23.23,0,0,1-14,4.79l-30.91.86Zm24.37-54.44h-.7l-17.08.47c-7.89.22-14.34,4.06-15.35,9.13L910.1,1086c-.55,2.79.77,5.61,3.64,7.74a20.12,20.12,0,0,0,12.24,3.41l31-.86a20.08,20.08,0,0,0,12.08-4.12c2.7-2.24,3.86-5.13,3.16-7.88l-7.77-30.21C963.2,1049.21,956.9,1045.79,949.32,1045.79Z"/><path class="cls-3" d="M665.2,810.83A7.57,7.57,0,0,1,668,796.31l394.17-10.88a7.56,7.56,0,0,1,7.78,7.35h0a7.58,7.58,0,0,1-7.36,7.78h0L668.4,811.44A7.33,7.33,0,0,1,665.2,810.83Z"/><path d="M668.18,813a9,9,0,0,1-3.59-.74h0a9.09,9.09,0,0,1-4.76-12,9.11,9.11,0,0,1,8.11-5.5l394.17-10.89a9.11,9.11,0,0,1,.51,18.21L668.44,813Zm394.19-26h-.17L668,797.85a6,6,0,0,0-5.45,8.26,6,6,0,0,0,3.22,3.31h0a6,6,0,0,0,2.56.49L1062.53,799a6,6,0,0,0,4-10.42A6,6,0,0,0,1062.37,787Z"/><rect class="cls-3" x="703.22" y="681.83" width="112.72" height="380.56" transform="translate(-23.78 21.3) rotate(-1.58)"/><path d="M707,1065.44l0-1.53L696.42,682l115.74-3.19,0,1.53,10.55,382ZM699.57,685,710,1062.29l109.6-3L809.17,681.92Z"/><path class="cls-2" d="M753.74,580.93c-21.08.6-37.16,37.08-36.77,51.31l.71,25.77,76.32-2.1-.71-25.78C792.89,615.9,774.82,580.36,753.74,580.93Z"/><path class="cls-3" d="M699.45,841a14.87,14.87,0,0,1-15.26-14.44L683,784.61a14.86,14.86,0,1,1,29.71-.82l1.16,41.94A14.87,14.87,0,0,1,699.45,841Z"/><path d="M699.06,842.53a16.43,16.43,0,0,1-16.4-15.94l-1.16-41.94a16.39,16.39,0,1,1,32.77-.9l1.16,41.94a16.44,16.44,0,0,1-15.93,16.84h-.44Zm-1.16-71.66h-.38a13.32,13.32,0,0,0-12.95,13.69l1.15,41.94a13.33,13.33,0,0,0,26.64-.74l-1.15-41.94a13.35,13.35,0,0,0-13.31-13Z"/><polyline class="cls-3" points="741.52 1062.95 741.3 1049.38 735.32 684.1 735.29 682.44 734.78 656.46 727.51 656.63 728.03 682.63 728.05 684.35"/><polygon points="739.99 1062.98 739.77 1049.4 733.76 682.46 733.27 658.03 729.08 658.13 729.59 684.33 726.52 684.38 726.49 682.65 725.95 655.13 736.28 654.88 736.85 684.07 742.84 1049.35 743.06 1062.93 739.99 1062.98"/><path class="cls-3" d="M823.58,749.18l-130.66,3.6c-12.48-15.21-13.61-80,12.44-92.39l10.21-17.34,78.74-3.85,9.21,18.26C816.47,668.49,823.15,732.92,823.58,749.18Z"/><path d="M692.21,754.34l-.47-.58c-8.51-10.38-11.52-41-6.31-64.18,2.43-10.81,7.66-24.79,18.84-30.37l10.4-17.66,80.57-3.93,9.51,18.89c13.55,12.23,20,77,20.37,92.63l0,1.53Zm24.26-109.8-10,17-.43.21c-10.35,4.9-15.27,18.19-17.58,28.47-5.31,23.64-1.57,51.7,5.23,61L822,747.69c-.8-19.46-7.75-79.08-19.48-89.06l-.23-.2-8.9-17.65Z"/><path class="cls-3" d="M774.41,718.08l-33,.91c-6.37.18-11.79-8.09-12.08-18.43s4.67-18.91,11.05-19.08l33-.91c6.38-.18,11.8,8.09,12.08,18.43S780.78,717.9,774.41,718.08Z"/><path d="M741.17,720.53c-7.12,0-13.12-8.87-13.42-19.93A27.09,27.09,0,0,1,731,686.44c2.36-4.09,5.67-6.4,9.31-6.5l33-.91h.24c7.11,0,13.11,8.87,13.42,19.93a27.19,27.19,0,0,1-3.23,14.16c-2.37,4.09-5.68,6.39-9.31,6.49l-33,.92Zm32.4-38.43h-.16l-33,.91c-2.53.07-4.92,1.83-6.73,5a24.06,24.06,0,0,0-2.82,12.54c.25,9.34,5,17.13,10.5,17l33-.91c2.54-.07,4.93-1.84,6.74-5a24,24,0,0,0,2.82-12.53C783.66,689.8,778.94,682.1,773.57,682.1Z"/><polygon class="cls-3" points="710.42 905.13 642.31 953.24 630.41 1061.72 709.87 1035.17 710.42 905.13"/><path d="M628.63,1063.94l12.23-111.55L712,902.16l-.57,134.12ZM643.76,954.1,632.2,1059.51l76.14-25.44.53-126Z"/><rect class="cls-3" x="920.72" y="677.17" width="112.72" height="380.56" transform="translate(-23.57 27.3) rotate(-1.58)"/><path d="M924.5,1060.78l0-1.53-10.55-382,115.75-3.19,0,1.53,10.55,381.95Zm-7.43-380.49,10.42,377.34,109.6-3-10.42-377.34Z"/><path class="cls-2" d="M969,576.33c-21.08.6-37.16,37.08-36.77,51.31l.71,25.78,76.32-2.11-.71-25.77C1008.19,611.3,990.12,575.76,969,576.33Z"/><polyline class="cls-3" points="1004.09 1057.05 1003.94 1047.87 998.13 692.76 997.82 676.52 997.6 665.14 990.34 665.32 990.55 676.72 990.86 693.03"/><polygon points="1002.55 1057.07 996.1 666.71 991.9 666.81 992.4 693 989.33 693.06 988.77 663.82 999.11 663.57 999.66 692.73 1005.62 1057.02 1002.55 1057.07"/><path class="cls-3" d="M1038.88,744.58l-130.66,3.61c-2.27-13.77.67-78,12.44-92.4l10.21-17.34,78.74-3.85,9.21,18.26C1042.07,654.76,1050.2,717.9,1038.88,744.58Z"/><path d="M906.93,749.76l-.22-1.32c-2.4-14.51.63-78.55,12.68-93.53L930,637l80.57-3.93,9.27,18.41c5.51.78,10.39,4.62,14.52,11.45,11.9,19.67,14.91,61.2,6,82.3l-.39.91Zm24.84-109.82-9.93,16.82c-11.06,13.51-14.21,73.73-12.29,89.85l128.29-3.54c8-20.3,5-60.23-6.14-78.6-3.81-6.29-8.18-9.68-13-10.08l-.86-.07-9.14-18.13Z"/><path class="cls-3" d="M989.87,719.27l-33,.91c-6.37.18-11.83-9.39-12.16-21.33s4.59-21.79,11-22l33-.91c6.38-.18,11.83,9.39,12.16,21.33S996.24,719.09,989.87,719.27Z"/><path d="M956.65,721.72c-7.25,0-13.17-10-13.52-22.83s5.11-23.34,12.46-23.54l33-.92h.22c7.24,0,13.16,10,13.52,22.83s-5.12,23.34-12.46,23.54l-33,.92Zm32.19-44.22h-.13l-33,.92c-5.44.15-9.78,9.48-9.47,20.39s5.07,19.84,10.45,19.84h.13l33-.91c5.44-.16,9.78-9.49,9.48-20.4S994.23,677.5,988.84,677.5Z"/><polygon class="cls-3" points="1033.73 877.32 1099.57 928.49 1106.51 1037.4 1028.35 1007.25 1033.73 877.32"/><path d="M1108.19,1039.7l-81.42-31.41,0-1.1,5.5-132.91,68.74,53.42Zm-78.26-33.48,74.89,28.89-6.73-105.83-62.95-48.92Z"/><path class="cls-2" d="M848,124.76c-21.08.6-37.17,37.08-36.78,51.31l.71,25.78,76.33-2.11L887.5,174C887.1,159.73,869,124.19,848,124.76Z"/><path class="cls-3" d="M865,1096.69l-30.93.85a21.53,21.53,0,0,1-13.23-3.71c-3.36-2.5-4.9-5.88-4.23-9.27l6.09-30.59c1.15-5.77,8.22-10.13,16.81-10.37l17.08-.47c8.6-.24,15.9,3.73,17.36,9.43l7.77,30.2c.86,3.35-.49,6.81-3.71,9.49A21.53,21.53,0,0,1,865,1096.69Z"/><path d="M833,1099.11a23.25,23.25,0,0,1-13-4c-3.9-2.91-5.66-6.84-4.86-10.84l6.08-30.59c1.29-6.46,9-11.34,18.28-11.6l17.08-.47c9.31-.25,17.25,4.19,18.89,10.58l7.77,30.2c1,3.95-.52,8-4.21,11a23.26,23.26,0,0,1-14,4.79l-30.92.86C833.75,1099.1,833.37,1099.11,833,1099.11Zm24.38-54.45h-.7l-17.09.47c-7.88.22-14.34,4.06-15.34,9.13l-6.09,30.59c-.56,2.79.77,5.61,3.63,7.74A20.15,20.15,0,0,0,834,1096l31-.86A20.08,20.08,0,0,0,877.1,1091c2.69-2.24,3.86-5.13,3.15-7.88l-7.76-30.21C871.24,1048.08,864.93,1044.66,857.36,1044.66Z"/><rect class="cls-3" x="806.78" y="290.23" width="112.72" height="769.25" transform="translate(-18.3 24.08) rotate(-1.58)"/><path d="M815.92,1062.47l0-1.54L794.61,290.44l115.74-3.19,0,1.53,21.28,770.49Zm-18.16-769,21.15,765.88,109.6-3L907.36,290.4Z"/><polyline class="cls-3" points="877.56 1059.23 877.25 1040.82 871.04 660.77 870.51 633.15 863.23 633.32 863.77 661.04"/><polygon points="876.03 1059.26 875.72 1040.84 869.5 660.8 869.01 634.72 864.8 634.82 865.31 661.01 862.24 661.07 861.67 631.83 872.02 631.58 872.57 660.74 878.79 1040.79 879.1 1059.21 876.03 1059.26"/><path class="cls-3" d="M931,359.2l-152.67,4.22c-2.66-16.09.78-91.17,14.53-108l3.76-20,105.42-2.91L907.59,252C922.73,264.92,930.53,340.2,931,359.2Z"/><path d="M777.08,365l-.22-1.32c-2.79-16.87.69-91.06,14.6-108.87l3.92-20.88,107.85-3L909,251.19c15.71,14.42,23.14,89.81,23.62,108l0,1.53Zm20.86-128.07-3.61,19.21-.25.3c-13,15.9-16.69,86.88-14.38,105.41l149.75-4.13c-.88-22.49-9-92.74-22.85-104.5l-.36-.3-5.32-18.83Z"/><path class="cls-3" d="M905.41,234.87l-108.78,3c-4,.11-7.33-2-7.41-4.71a3.45,3.45,0,0,1,.17-1.15L806.29,180c.72-2.23,3.6-3.86,7-4l72.14-2c3.37-.09,6.33,1.39,7.18,3.57l19.74,51c1,2.61-1.32,5.33-5.21,6.07A9.6,9.6,0,0,1,905.41,234.87Z"/><path d="M796.33,239.42a10.8,10.8,0,0,1-5.71-1.54,5.85,5.85,0,0,1-2.93-4.67,5,5,0,0,1,.24-1.67l16.9-52c.92-2.84,4.37-4.91,8.38-5l72.14-2c4-.1,7.57,1.76,8.65,4.55l19.74,51a5,5,0,0,1-.32,4.27,8.53,8.53,0,0,1-6,3.86,12.65,12.65,0,0,1-1.94.21l-108.78,3Zm89.35-63.88h-.24l-72.14,2c-2.65.07-5,1.32-5.55,2.9l-16.9,52.05a1.74,1.74,0,0,0-.09.64,2.94,2.94,0,0,0,1.51,2.16,7.88,7.88,0,0,0,4.32,1.05l108.78-3a8.94,8.94,0,0,0,1.45-.16,5.69,5.69,0,0,0,3.92-2.33,1.94,1.94,0,0,0,.14-1.67l-19.74-51.05C890.56,176.63,888.24,175.54,885.68,175.54Z"/><path class="cls-3" d="M807.36,657.51a13.32,13.32,0,0,1-2.76-1.6,9.79,9.79,0,0,1-4.16-7.56l-4-143.14c-.16-5.92,5.64-10.91,12.94-11.11l97.38-2.69c7.29-.2,13.36,4.46,13.52,10.38l4,143.15a9.83,9.83,0,0,1-3.74,7.77,14.89,14.89,0,0,1-9.2,3.34L814,658.74A15.75,15.75,0,0,1,807.36,657.51Z"/><path d="M813.45,660.28a17.28,17.28,0,0,1-6.69-1.36h0a15,15,0,0,1-3.09-1.78,11.43,11.43,0,0,1-4.77-8.71L795,505.26c-.19-6.78,6.28-12.47,14.42-12.69l97.39-2.69c8.13-.22,14.91,5.1,15.1,11.87l3.95,143.14a11.41,11.41,0,0,1-4.32,9,16.42,16.42,0,0,1-10.13,3.67L814,660.27ZM808,656.1a14.14,14.14,0,0,0,5.95,1.1l97.39-2.69a13.4,13.4,0,0,0,8.27-3,8.35,8.35,0,0,0,3.17-6.57l-4-143.11c-.14-5-5.27-8.9-11.53-8.9h-.42l-97.38,2.69c-6.45.17-11.58,4.45-11.44,9.53l4,143.14a8.27,8.27,0,0,0,3.51,6.34A11.56,11.56,0,0,0,808,656.1Z"/><path class="cls-3" d="M869.69,225.66l-33,.91c-6.38.18-11.77-7-12-16s4.74-16.52,11.11-16.7l33-.91c6.38-.18,11.77,7,12,16.06S876.06,225.49,869.69,225.66Z"/><path d="M836.41,228.11c-3.49,0-6.79-1.83-9.3-5.19a21.67,21.67,0,0,1-4-12.36c-.28-9.88,5.38-18.07,12.6-18.27l33-.91c3.6-.1,7,1.74,9.58,5.19a21.62,21.62,0,0,1,4,12.35c.28,9.88-5.38,18.08-12.6,18.28l-33,.91ZM869,194.44h-.18l-33.05.91c-5.53.15-9.84,6.93-9.62,15.12a18.67,18.67,0,0,0,3.41,10.6c2,2.62,4.47,4,7,4l33-.91c5.53-.16,9.84-6.94,9.62-15.12a18.72,18.72,0,0,0-3.41-10.6C873.94,195.84,871.52,194.44,869,194.44Z"/><path class="cls-3" d="M1031,831.7a14.87,14.87,0,0,1-15.26-14.44l-1.16-41.94a14.86,14.86,0,1,1,29.71-.82l1.16,41.94A14.87,14.87,0,0,1,1031,831.7Z"/><path d="M1030.56,833.24a16.43,16.43,0,0,1-16.4-15.94L1013,775.36a16.39,16.39,0,1,1,32.77-.91l1.16,41.95A16.44,16.44,0,0,1,1031,833.24h-.44Zm-1.17-71.66H1029a13.32,13.32,0,0,0-12.95,13.68l1.15,42a13.33,13.33,0,0,0,26.64-.74l-1.15-41.94A13.35,13.35,0,0,0,1029.39,761.58Z"/><polygon class="cls-3" points="908.37 334.66 974.21 385.83 981.14 494.74 902.98 464.59 908.37 334.66"/><path d="M982.82,497l-81.42-31.4.05-1.1L907,331.62,975.7,385Zm-78.26-33.47,74.9,28.88-6.74-105.82-63-48.92Z"/><polygon class="cls-3" points="808.9 334.66 743.05 385.83 736.12 494.74 814.28 464.59 808.9 334.66"/><path d="M734.44,497l7.13-112,.54-.42,68.2-53,5.55,134Zm10.1-110.41-6.73,105.82,74.89-28.88L807.49,337.7Z"/><path d="M337.69,915h77.9c0,2.24,80.29,4.06,80.29,4.06a20.64,20.64,0,0,1,3.42,3.25,20.12,20.12,0,0,1,4.71,13v3.24a20.29,20.29,0,0,1-20.28,20.28h-146a20.29,20.29,0,0,1-20.28-20.28v-3.24A20.32,20.32,0,0,1,337.69,915Z"/><rect class="cls-3" x="399.36" y="957.99" width="21.09" height="136.3"/><path d="M422,1095.82H397.82V956.45H422Zm-21.1-3.07h18V959.52h-18Z"/><path d="M339.32,1093.55c0,2.27,32,.88,71.4.88s71.39,1.39,71.39-.88-32-20.36-71.39-20.36S339.32,1091.27,339.32,1093.55Z"/><polygon class="cls-3" points="597.16 1052.84 613.37 1045.09 591.1 977.33 567.17 988.77 597.16 1052.84"/><path d="M596.42,1054.9,565.14,988,592,975.19l23.24,70.7Zm-27.21-65.4,28.68,61.29,13.6-6.5-21.31-64.82Z"/><path class="cls-3" d="M488.47,1041.92c1.18.74,2.36,1.46,3.55,2.19q3.56,2.17,7.16,4.29l3.62,2.09v0h.09l1.84.45,2.63-7,1.21-3.2,1.72-4.54,3.14-8.3L530,984.31,504.25,978l-1,3.94h0l-.47,2-9,36.46-1.84,7.45-.06.23-1.1,4.45-1,3.86-1.06,4.31Z"/><path d="M505.68,1052.82l-3.19-.79-1.16-.18,0-.44-2.91-1.69c-2.6-1.53-4.95-2.93-7.18-4.3-1.2-.73-2.38-1.46-3.56-2.2l-1-.59,16.41-66.53L532,983.23Zm-2.2-3.7.29.07,24.16-63.81-22.56-5.56-1.08,4.4-14.06,57,2.59,1.59c2.22,1.36,4.55,2.76,7.13,4.27C501.12,1047.76,502.31,1048.44,503.48,1049.12Z"/><path class="cls-3" d="M335,888.45c1.63,2.62,3.3,5.22,5,7.81q4.68,7.22,9.61,14.22l0,0a33.66,33.66,0,0,0,6.32,4.61c.09.07.2.12.29.18a23.68,23.68,0,0,0,5.31,2.13l2,.5c2.4.57,4.78,1.06,7.15,1.49,4.22.75,8.39,1.28,12.53,1.62l1,.08c17,1.25,33.63-.76,50.94-4.06,8.55-1.62,17.28-3.56,26.32-5.57,2.95-.67,5.92-1.32,8.92-2,.22,0,.46-.11.7-.15,4.29-1,8.65-1.87,13.11-2.79,5.62-1.16,11.42-2.28,17.45-3.34l-.43,8.5a64,64,0,0,1-4,19.08c-2.57,7.53-4.6,13.48-.31,25.88l2.08,6a20.51,20.51,0,0,0,2.1,18.14l.42.63-17.28,43.71-1.12,2.84h38.18l26.61-53.4,1.28-2.55v-.13l-2.75-102.61c0-.9-.11-1.82-.23-2.72a31.21,31.21,0,0,0-11.87-21,30.06,30.06,0,0,0-22.38-6.12l-9.11,1.18-18.61,2.4-13.11,1.71-.26,0-38.67,5-2.77-11.31-.51-.19-16.28-6-56.3-20.63-.14-.05-3.71-1.36L352,811l-.38.64a110,110,0,0,0-8.89,20.65A322.78,322.78,0,0,0,333.37,868c-.11.52-.2,1-.29,1.43l0,.13c0,.2-.06.33-.07.37A33.32,33.32,0,0,0,335,888.45Z"/><path d="M522.19,1029.54H480.81l18.93-47.9a22.19,22.19,0,0,1-2.43-19l-1.9-5.5c-4.47-12.89-2.25-19.37.31-26.87a62.34,62.34,0,0,0,3.95-18.68l.33-6.56c-5.06.91-10.16,1.89-15.51,3-4.3.89-8.59,1.8-13.09,2.79l-.39.08-.33.07q-4.47,1-8.89,2c-8.71,1.94-17.72,3.95-26.37,5.59-13.85,2.64-32.2,5.49-51.34,4.08q-.52,0-1.05-.09c-4.16-.33-8.43-.88-12.64-1.63-2.54-.46-4.91-.95-7.24-1.51l-2-.5a25,25,0,0,1-5.68-2.28l-.11-.07a1.35,1.35,0,0,1-.26-.15,34.51,34.51,0,0,1-6.43-4.69l-.61-.37V911c-3.2-4.56-6.35-9.22-9.37-13.88-1.82-2.8-3.45-5.37-5-7.83l-.12-.23a34.76,34.76,0,0,1-2.08-19.39l0-.15s0-.13,0-.21l.06-.22.27-1.39a326.31,326.31,0,0,1,9.4-35.85,111.91,111.91,0,0,1,9-20.93c.13-.23.27-.46.41-.69l1.1-1.79,78.89,28.92,2.64,10.76L511.71,838a31.73,31.73,0,0,1,23.51,6.43,32.91,32.91,0,0,1,12.45,22c.12.87.2,1.84.24,2.84l2.75,103.17-1.43,2.87Zm-36.87-3.08h35l27.3-54.76-2.75-102.35c0-.89-.11-1.76-.21-2.56a29.89,29.89,0,0,0-11.29-20A28.74,28.74,0,0,0,512.1,841L431,851.49l-2.91-11.85-75-27.48-.13.23a109.43,109.43,0,0,0-8.77,20.36,325.55,325.55,0,0,0-9.31,35.53c-.1.52-.2,1-.28,1.42l0,.18a2,2,0,0,0-.06.3h0a31.8,31.8,0,0,0,1.84,17.57c1.51,2.41,3.11,4.92,4.9,7.67,3,4.72,6.25,9.44,9.49,14.05a31.79,31.79,0,0,0,5.92,4.3l.17.11a1.18,1.18,0,0,1,.19.11,21.41,21.41,0,0,0,4.89,1.94l2,.5c2.25.54,4.57,1,7.06,1.47,4.11.73,8.27,1.27,12.37,1.6l1,.08c18.78,1.38,36.88-1.43,50.55-4,8.61-1.63,17.58-3.63,26.27-5.56,2.95-.67,5.92-1.32,8.92-2l.29-.06.44-.1c4.49-1,8.78-1.9,13.1-2.78,6.05-1.25,11.77-2.34,17.49-3.35l1.9-.33-.53,10.41a65.18,65.18,0,0,1-4.12,19.56c-2.56,7.49-4.42,12.93-.3,24.83l2.25,6.51-.18.51A19.09,19.09,0,0,0,502.33,980l.85,1.29Z"/><path class="cls-3" d="M332.59,850.63c.18-.76.4-1.53.64-2.28a160.91,160.91,0,0,1,6.6-16.7c2.81-6.19,6.18-12.82,10.19-20q2.91-5.22,6.26-10.85c1.12-1.88,2.29-3.8,3.49-5.75.05-.09.1-.18.16-.27l.34-.57L416,801.67l20.74,2.77L438,814.78l.3,2.56s0,0,0,0l.83,7h0l1.11,9.22.09,0,30.79-4,31.72-4.11,17-2.21a30,30,0,0,1,22.37,6.12,31.24,31.24,0,0,1,11.88,21c.1.83.18,1.69.21,2.54L570.38,891a245.83,245.83,0,0,1,18.17,71.5l11.79,37.68-1.68.16-25,2.32-6.6.62-14.53-21.21c-1.65-2.42-3.23-4.9-4.69-7.45a113.21,113.21,0,0,1-6.42-12.91L510,886.93q-3.64.62-7.22,1.19-16.53,2.67-31.72,4.37c-32.95,3.68-61.48,4-86.88.84q-10.71-1.3-20.69-3.43-3.66-.76-7.23-1.65c-.56-.13-1.1-.26-1.65-.41A30.38,30.38,0,0,1,333.37,868,31,31,0,0,1,332.59,850.63Z"/><path d="M566.32,1004.89l-15-21.95c-1.69-2.48-3.29-5-4.75-7.56A115.34,115.34,0,0,1,540,962.3l-31-73.65c-2,.34-4,.67-6,1-11,1.79-21.68,3.26-31.79,4.38-33.17,3.71-61.71,4-87.24.85-7.15-.87-14.15-2-20.82-3.45-2.44-.52-4.89-1.08-7.28-1.67-.55-.13-1.11-.26-1.67-.41a31.77,31.77,0,0,1-22.32-20.86,32.5,32.5,0,0,1-.83-18.2c.17-.7.38-1.46.68-2.39A166,166,0,0,1,338.43,831c2.85-6.27,6.3-13,10.25-20.11,1.94-3.48,4.05-7.14,6.28-10.89q1.68-2.81,3.48-5.73a2.39,2.39,0,0,1,.21-.34l.83-1.38,78.62,10.52,1.66,13.84.32.78-.21.21,1.67,13.92,78.1-10.11a31.76,31.76,0,0,1,23.52,6.44,32.91,32.91,0,0,1,12.45,22c.1.76.17,1.56.21,2.37l16,37.84a246.9,246.9,0,0,1,18.27,71.79l12.31,39.35ZM511,885.21l31.9,75.9a111.85,111.85,0,0,0,6.33,12.74c1.42,2.47,3,4.94,4.63,7.35l14,20.47,30.48-2.84L587,962.8l0-.15a243.79,243.79,0,0,0-18.06-71l-16.18-38.35V853c0-.82-.11-1.63-.21-2.4a29.84,29.84,0,0,0-11.29-20A28.62,28.62,0,0,0,520,824.77L439,835.27l-.27-1.53-2-17h0l-1.31-11-74.27-9.94c-1.2,1.94-2.35,3.84-3.47,5.71-2.21,3.73-4.31,7.36-6.24,10.81-3.91,7-7.32,13.7-10.13,19.9a157.87,157.87,0,0,0-6.54,16.54c-.27.83-.46,1.52-.61,2.15h0a29.43,29.43,0,0,0,.75,16.5A28.73,28.73,0,0,0,355,886.36l1.62.39c2.37.59,4.79,1.15,7.2,1.65,6.58,1.4,13.49,2.55,20.55,3.41,25.3,3.11,53.6,2.83,86.53-.85,10.06-1.12,20.71-2.58,31.64-4.36q3.57-.55,7.21-1.19Z"/><path d="M592,1041.78l17.54-8.41,2.75-1.32,4.39,10.79,30.68,6.75a7.28,7.28,0,0,1,1.19,13.85l-30,12.23-9.52-8.56,2.34,11.49-11.29,4.61-12.38-39.38Z"/><path d="M490.29,1028.6l18.38,6.37,2.88,1-4.46,10.75,17,26.38a7.28,7.28,0,0,1-8.9,10.68l-29.9-12.4-.74-12.77-6.42,9.8-11.27-4.67,18.92-36.68Z"/><path class="cls-3" d="M601.84,634.6A13.09,13.09,0,0,1,582.32,639l-38.65,25.65-.07-24.1,36.71-20.67a13.12,13.12,0,0,1,21.53,14.69Z"/><path d="M542.15,667.54l-.09-27.86,37.27-21a14.66,14.66,0,0,1,23.88,16.61,14.59,14.59,0,0,1-19.64,6.31,12.36,12.36,0,0,1-1.27-.74Zm3-26.07.06,20.36,37.18-24.69.87.66a11.88,11.88,0,0,0,1.72,1.09,11.51,11.51,0,0,0,15.51-5h0a11.59,11.59,0,0,0-19-13l-.18.2-.23.13Z"/><path class="cls-2" d="M573,645.74l-18-20.51-73.42,43.59-97.33-8.92a32.92,32.92,0,0,0-35.77,29.78,33.73,33.73,0,0,0,0,6h0a33,33,0,0,0,35.81,29.74L493.84,715.3Z"/><path class="cls-2" d="M347.08,646.06l.17-.21h0a71.1,71.1,0,0,1,68.82,35.66l8.26,14.55c26.72,32.66,7.3,55.18,6.14,58.53l9.27,42.76-2.08,14.31-1,4.25L330.77,871.22c-6-29-.2-53.63,21.76-72.48l-21.25-66.1A93.14,93.14,0,0,1,347.08,646.06Z"/><path class="cls-2" d="M431.25,967.18H465.2a7.75,7.75,0,0,0,7.68-6.66,172.39,172.39,0,0,0,0-46.5,7.76,7.76,0,0,0-7.55-6.67c-10.68-4.79-22.18-4.79-34.2,0a7.65,7.65,0,0,0-5.83,2.82,7.81,7.81,0,0,0-1.62,6.53,104.3,104.3,0,0,1,0,41.13,7.84,7.84,0,0,0,1.62,6.54A7.62,7.62,0,0,0,431.25,967.18Z"/><path class="cls-3" d="M421.3,923.78A13.06,13.06,0,0,1,418,904l-23.32-40.1,24.07,1.36,18.45,37.87a13.12,13.12,0,0,1-15.94,20.62Z"/><path d="M428.06,927.19a14.64,14.64,0,0,1-7.55-2.09h0a14.59,14.59,0,0,1-5.13-20,14.33,14.33,0,0,1,.81-1.22L392,862.24l27.82,1.56,18.73,38.45a14.67,14.67,0,0,1-10.45,24.94Zm-30.58-61.57,22.44,38.58-.71.83a11.33,11.33,0,0,0-1.19,1.65,11.52,11.52,0,0,0,4.06,15.78h0a11.59,11.59,0,0,0,14.08-18.21l-.19-.18-18.18-37.3Z"/><path class="cls-2" d="M411.89,894.3l21.55-16.79-39.16-75.87L409,705a32.91,32.91,0,0,0-27.6-37.47,32,32,0,0,0-6-.36h0a33,33,0,0,0-31.8,34l3.62,110Z"/><circle class="cls-3" cx="371.48" cy="591.97" r="41.3"/><path d="M371.48,634.81A42.84,42.84,0,1,1,414.32,592,42.89,42.89,0,0,1,371.48,634.81Zm0-82.61A39.77,39.77,0,1,0,411.25,592,39.81,39.81,0,0,0,371.48,552.2Z"/><path d="M238.93,652.75a35.8,35.8,0,0,0,19.69,13.86,40.7,40.7,0,0,0,9.8,1.66,37.13,37.13,0,0,1,2.91-10.89,30.8,30.8,0,0,0,1.51,10.87,36.34,36.34,0,0,0,14.33-3.84,31.58,31.58,0,0,0,16.9-22.66c1.75-11.3-3.37-22.39-5.23-33.67s1.64-25.57,12.68-28.54c8.41-2.26,7.46-1.28,14.46,3.91-7.28,10.75,19.58,50.15,30.57,46.72,6.22-1.94,10.2-7.65,11.48-7.65,8.64,14.89-7.63,40,8.77,45.17l-1.35-1.35c-9.9-12.18,10.78-37.94.89-50.11-2.76-3.41-5.7-7.44-4.89-11.75.78-4.09,7.27-6.26,9.18-2.89-3.43-7.84,1.63-18.31,10-20.32,7.44-1.79,7.3.41,14.76,1.37a37.25,37.25,0,0,1,2.71-9.35,30.36,30.36,0,0,0,1.11,9.53,12,12,0,0,0,7.24-2.61c6.08-4.91,4.85-15.2-.58-20.82s-13.51-7.63-21.22-8.94c-2.24-15.6-45.27-17.22-51-1.64-2.43-11.64-17-17.68-28.32-14.07S296.17,548.93,292,560.07s-5.29,23.13-7.84,34.73-6.85,23.42-15.72,31.33-23.32,10.51-32.66,3.17A26.14,26.14,0,0,0,238.93,652.75Z"/><polygon class="cls-2" points="577.05 672.76 655.47 686.15 689.24 577.69 610.82 564.31 577.05 672.76"/><path class="cls-3" d="M1114.47,1096.69h5.94l17-83.57,3-14.64,18.49-91h70.92l38.34,189.28H1274L1234.87,904a2.87,2.87,0,0,0-2.85-2.39h-75.55a2.86,2.86,0,0,0-2.85,2.39l-16.24,80-3,14.61Z"/><path d="M1275.92,1098.25h-9.08L1228.51,909H1160.1l-21.22,104.46-17.21,84.8h-9.08l39.53-194.57a4.34,4.34,0,0,1,4.36-3.63H1232a4.39,4.39,0,0,1,4.34,3.68Zm-6.56-3.07h2.8l-38.8-190.91a1.35,1.35,0,0,0-1.33-1.17h-75.56a1.3,1.3,0,0,0-1.34,1.12l-38.78,190.94h2.81l19.68-97,18.75-92.28H1231Z"/><path class="cls-3" d="M1000.61,1096.69h5.95l38.33-189.28h70.9l18.49,91.05,3,14.59,17,83.57h5.94l-19.93-98.23-3-14.57-16.13-79.88a2.87,2.87,0,0,0-2.85-2.4h-75.64a2.87,2.87,0,0,0-2.85,2.4Z"/><path d="M1007.81,1098.23h-9.08l.38-1.84,39.17-192.76a4.41,4.41,0,0,1,4.37-3.62h75.66a4.38,4.38,0,0,1,4.33,3.67l16.12,79.84,3,14.56L1162,1098.16H1153l-20.18-99.39L1114.53,909h-68.38Zm-5.32-3.07h2.81l38.34-189.28H1117l38.43,189.21h2.81l-19.56-96.4-3-14.56-16.12-79.89a1.36,1.36,0,0,0-1.33-1.16h-75.67a1.34,1.34,0,0,0-1.33,1.11Z"/><path class="cls-2" d="M1240.5,879.55H1034.25a17.82,17.82,0,0,0-17.85,17.8V898a6.5,6.5,0,0,0,6.47,6.51h229a6.49,6.49,0,0,0,6.5-6.49v-.62a17.82,17.82,0,0,0-17.8-17.85Z"/><path class="cls-3" d="M961.36,442.86a15.3,15.3,0,0,0,20.94-5.44,14.73,14.73,0,0,0,1.16-2.44l54.36,1.13-15.06-23.9-49.31,2.59a15.38,15.38,0,0,0-12.09,28.06Z"/><path d="M969.08,446.51a17,17,0,0,1-16.23-21.78,16.94,16.94,0,0,1,20.77-11.48l50-2.62,17.06,27.08-56.16-1.17a17.3,17.3,0,0,1-.85,1.66,16.93,16.93,0,0,1-14.55,8.31Zm0-30.82a13.85,13.85,0,0,0-7,25.84h0A13.76,13.76,0,0,0,981,436.64a13.31,13.31,0,0,0,1-2.19l.38-1,52.6,1.1-13.06-20.73-48.68,2.55-.25-.07A13.76,13.76,0,0,0,969.08,415.69Z"/><path class="cls-3" d="M985.25,436A6.86,6.86,0,0,0,992,440.9l99.49-2.53,90.09-26.67a19.5,19.5,0,1,0-11.07-37.4l-.55.16-81.39,26.69-97.68,9.43a6.87,6.87,0,0,0-6.19,6.93l.28,16.66A6.72,6.72,0,0,0,985.25,436Z"/><path d="M991.83,442.44a8.42,8.42,0,0,1-8.05-6h0a8.31,8.31,0,0,1-.34-2.26l-.29-16.65a8.38,8.38,0,0,1,7.57-8.49l97.53-9.41L1169.48,373l.58-.19A21,21,0,1,1,1182,413.17l-90.28,26.73h-.2L992,442.44Zm-5.11-6.87a5.32,5.32,0,0,0,5.23,3.8l99.29-2.53,89.89-26.61a18,18,0,1,0-10.2-34.46l-.5.15-81.55,26.74-.17,0L991,412.11a5.32,5.32,0,0,0-4.8,5.38l.29,16.66A5.25,5.25,0,0,0,986.72,435.57Z"/><polygon class="cls-3" points="1129.53 863.75 1110.88 863.75 1102.01 791.79 1129.54 791.79 1129.53 863.75"/><path d="M1131.07,865.28h-21.55l-9.25-75h30.8Zm-18.83-3.07H1128V793.33h-24.26Z"/><path d="M1134.29,857.66h-36.74a23.42,23.42,0,0,0-23.41,23.42h0v.76h60.15Z"/><polygon class="cls-3" points="1184.31 863.75 1165.66 863.75 1156.78 791.79 1184.31 791.79 1184.31 863.75"/><path d="M1185.85,865.28H1164.3l-9.25-75h30.8ZM1167,862.21h15.76V793.33h-24.26Z"/><path d="M1189.07,857.66h-36.74a23.42,23.42,0,0,0-23.41,23.42h0v.76h60.15Z"/><path d="M1196.83,573l-4.45,264.29a6.09,6.09,0,0,1-6.19,6l-.45,0-21.83-2a6.08,6.08,0,0,1-5.52-5.59l-12.78-164.85a1.52,1.52,0,0,0-3,.06l-6.39,168.63a6.08,6.08,0,0,1-6.08,5.85H1106.7a6.09,6.09,0,0,1-6.08-5.71l-16.39-268.17,97.38-24.35Z"/><circle class="cls-3" cx="1126.2" cy="287.42" r="37.37"/><path d="M1126.2,326.33a38.91,38.91,0,1,1,38.9-38.91A38.95,38.95,0,0,1,1126.2,326.33Zm0-74.74A35.84,35.84,0,1,0,1162,287.42,35.87,35.87,0,0,0,1126.2,251.59Z"/><path class="cls-3" d="M1085.67,582.76h.1l87.39-1.35a6.84,6.84,0,0,0,6.71-6.16l1-9.9a.76.76,0,0,1,1.51,0l1,10.22a6.85,6.85,0,0,0,6.29,6.15l6.18.47a6.85,6.85,0,0,0,7.15-8.56l-5.32-20.28a276.18,276.18,0,0,1-2.59-128.81l2.65-12a43.41,43.41,0,0,0-20.5-46.89l-17.16-10.06-7.79-11.69a16.89,16.89,0,0,0-13.66-7.49c-10.86-.23-29.5,1.76-33,17.64a43.37,43.37,0,0,0-29.34,41.75L1078.82,576a6.86,6.86,0,0,0,6.85,6.75Z"/><path d="M1085.66,584.29a8.41,8.41,0,0,1-8.37-8.26l-2.52-180.22a44.77,44.77,0,0,1,29.57-42.95c4.19-16.2,23.2-18.25,34.33-18a18.43,18.43,0,0,1,14.91,8.17l7.59,11.39L1178,364.3a44.82,44.82,0,0,1,21.22,48.55l-2.65,12a276.09,276.09,0,0,0,2.57,128.1l5.32,20.27a8.38,8.38,0,0,1-8.75,10.48l-6.18-.47a8.36,8.36,0,0,1-7.69-7.53l-.26-2.51-.21,2.19a8.4,8.4,0,0,1-8.22,7.55Zm0-2.77v1.24l0-1.54,87.45-1.34a5.32,5.32,0,0,0,5.2-4.79l1-9.89a2.3,2.3,0,0,1,4.57,0l1,10.22a5.31,5.31,0,0,0,4.88,4.77l6.17.47a5.33,5.33,0,0,0,5.71-4.89,5.42,5.42,0,0,0-.16-1.75l-5.32-20.28a279,279,0,0,1-2.59-129.53l2.64-12A41.75,41.75,0,0,0,1176.48,367L1159,356.71l-8-12a15.33,15.33,0,0,0-12.41-6.81c-10.34-.23-28.2,1.61-31.47,16.43l-.19.84-.81.28a41.73,41.73,0,0,0-28.3,40.28L1080.36,576a5.33,5.33,0,0,0,5.31,5.24Z"/><path d="M1129.12,309c.15,5.29,3.82,8.34,8.32,11.11s9.77,4,14.93,5.12a4.56,4.56,0,0,0,6.17-1.88,4.68,4.68,0,0,0,.53-2.11l4.73-18a114.41,114.41,0,0,0,3.64-17.55c1.14-11.43-1.57-23.72-9.54-32s-21.81-11.2-31.36-4.83c-11.35-14.49-63.19,17.52-50.4,27.59,2.28,1.79,5.75-.48,8.64-.7s6.13.29,8,2.53c2.4,2.93,1.35,7.29,2.34,10.94a10.21,10.21,0,0,0,12.83,6.64l.08,0a35.31,35.31,0,0,0,6.69-4.3c2.22-1.48,5-2.57,7.51-1.64,3.29,1.23,4.45,5.25,4.75,8.75A80.9,80.9,0,0,0,1129.12,309Z"/><polygon class="cls-4" points="1120.39 409.12 1114.31 483.68 1082.35 561.28 1129.52 485.2 1120.39 409.12"/><path class="cls-3" d="M1074.88,590.18a15.3,15.3,0,0,0,2.35-21.51,15.64,15.64,0,0,0-1.87-1.95l20.36-50.42-27.7,5.6-15.08,47a15.38,15.38,0,0,0,21.94,21.26Z"/><path d="M1065.17,595.18a16.93,16.93,0,0,1-13.61-27l15.28-47.63,31.37-6.33-21,52.08a16.51,16.51,0,0,1,1.25,1.39,16.84,16.84,0,0,1-2.58,23.67A16.93,16.93,0,0,1,1065.17,595.18Zm4-72-14.89,46.42-.16.21A13.85,13.85,0,0,0,1073.91,589h0a13.74,13.74,0,0,0,2.11-19.35,13.82,13.82,0,0,0-1.67-1.75l-.83-.72,19.7-48.79Z"/><path class="cls-3" d="M1075.22,568.34a6.87,6.87,0,0,0,7-4.57l33-93.91,7-93.69a19.51,19.51,0,0,0-38.9-2.93c0,.19,0,.38,0,.57l-3.94,85.57-25.86,94.67a6.86,6.86,0,0,0,4.28,8.24l15.68,5.65A6.66,6.66,0,0,0,1075.22,568.34Z"/><path d="M1075.71,569.89l-.6,0h0a8.54,8.54,0,0,1-2.23-.48l-15.67-5.65a8.39,8.39,0,0,1-5.25-10.09l25.82-94.52,3.94-85.39c0-.21,0-.41,0-.62a21,21,0,0,1,42,3.17l-7.06,93.89-33,94.1A8.42,8.42,0,0,1,1075.71,569.89Zm-.38-3.08a5.36,5.36,0,0,0,5.4-3.55l32.89-93.71,7-93.49a18,18,0,1,0-35.84-2.7c0,.18,0,.35,0,.53l-4,85.73-25.91,94.83a5.32,5.32,0,0,0,3.33,6.4l15.67,5.65A5.32,5.32,0,0,0,1075.33,566.81Z"/></svg>