<svg id="Layer_1" data-name="Layer 1" xmlns="http://www.w3.org/2000/svg" viewBox="0 0 1600 1200"><defs><style>.cls-1{fill:#fff;}.cls-2{fill:#2B6CB0;}.cls-3{fill:#fafbfd;}.cls-4{fill:#e6e6e6;}.cls-5{fill:#ffb6b6;}</style></defs><title>hero</title><rect x="600.67" y="465.17" width="17.04" height="191.46" transform="translate(685.65 -263.64) rotate(52.66)"/><circle class="cls-1" cx="751.67" cy="454.71" r="110.27"/><path d="M751.77,344.42v20a90.28,90.28,0,1,1-75.59,40.78,89.92,89.92,0,0,1,75.59-40.78v-20m0,0a110.3,110.3,0,1,0,60.37,18.08,110.18,110.18,0,0,0-60.37-18.08Z"/><path class="cls-2" d="M751.83,462.22a22.69,22.69,0,0,0,5.47,2.62l1.66,6,7.64.36,2-5.74A22.45,22.45,0,0,0,779.36,460l6,1.62,4.19-6.4-4-4.65a22.45,22.45,0,0,0,.66-12.06l4.57-4.17-3.37-6.86-6.36.9A22.56,22.56,0,0,0,771,421.89l-1.32-5.81-7.63-.45-2.23,5.66a22.49,22.49,0,0,0-10.63,5.3l-6.1-1.63-4.17,6.41,4,4.65a22.52,22.52,0,0,0-.72,12.13l-4.3,4.29,3.46,6.82,5.85-1.1A22.27,22.27,0,0,0,751.83,462.22Zm2-25.74a12.54,12.54,0,1,1,3.61,17.37A12.53,12.53,0,0,1,753.79,436.48Z"/><path class="cls-2" d="M715.46,474a12.52,12.52,0,0,0,3,1.44l.91,3.3,4.2.2,1.08-3.15a12.36,12.36,0,0,0,5.93-3l3.28.89,2.3-3.52L734,467.64a12.39,12.39,0,0,0,.37-6.63l2.51-2.29L735,455l-3.49.5a12.3,12.3,0,0,0-5.53-3.59l-.73-3.19-4.19-.25-1.22,3.11a12.28,12.28,0,0,0-5.84,2.91l-3.36-.89-2.29,3.52,2.2,2.55a12.31,12.31,0,0,0-.39,6.66l-2.37,2.37,1.9,3.74,3.22-.6A12.25,12.25,0,0,0,715.46,474Zm1.07-14.14a6.89,6.89,0,1,1,2,9.54A6.9,6.9,0,0,1,716.53,459.88Z"/><path class="cls-2" d="M743,489a9,9,0,0,0,2.32,1.11l.7,2.56,3.24.15.84-2.43a9.65,9.65,0,0,0,4.58-2.31l2.52.68L759,486l-1.69-2a9.48,9.48,0,0,0,.28-5.11l1.94-1.77-1.43-2.91-2.69.38A9.78,9.78,0,0,0,753.5,473a9.36,9.36,0,0,0-2.37-1.13l-.56-2.46-3.23-.19-1,2.4a9.54,9.54,0,0,0-4.51,2.25l-2.59-.69-1.77,2.71,1.7,2a9.49,9.49,0,0,0-.3,5.14l-1.83,1.82,1.47,2.9,2.48-.47A9.15,9.15,0,0,0,743,489Zm.83-10.92a5.32,5.32,0,1,1,1.53,7.37A5.33,5.33,0,0,1,743.85,478.06Z"/><g id="Environment"><polygon points="1337.16 118.34 1326.69 118.34 1326.69 107.88 1322.51 107.88 1322.51 118.34 1312.04 118.34 1312.04 122.53 1322.51 122.53 1322.51 133 1326.69 133 1326.69 122.53 1337.16 122.53 1337.16 118.34"/><path d="M89.65,431.27a14.66,14.66,0,1,1,14.65-14.65A14.66,14.66,0,0,1,89.65,431.27Zm0-25.12a10.47,10.47,0,1,0,10.47,10.47A10.48,10.48,0,0,0,89.65,406.15Z"/><path d="M1393.67,226.14a14.65,14.65,0,1,1,14.65-14.65A14.66,14.66,0,0,1,1393.67,226.14Zm0-25.12a10.47,10.47,0,1,0,10.47,10.47A10.48,10.48,0,0,0,1393.67,201Z"/><path d="M1525,819.26l-4.19,0c0-.74-.15-18-18.81-18.17-22.66-.22-25.13-21.42-25.15-21.63L1481,779c.07.72,2.15,17.7,21,17.89C1524.92,797.1,1525,819,1525,819.26Z"/><path d="M104.58,741.64a23,23,0,0,1-3.57-.24l.76-4.12c.71.12,17.58,2.91,23.07-15.15,6.66-21.89,27.73-15.79,27.94-15.73l-1.21,4,.6-2-.6,2c-.7-.21-17.29-4.92-22.72,12.94C123.92,739.56,110.91,741.64,104.58,741.64Z"/></g><g id="Plant"><circle cx="471.2" cy="962.62" r="13.61"/><path d="M512.29,1088.49c-38.48-25.37-47.11-94.7-47.46-97.64l5.2-.62c.08.7,8.69,69.87,45.14,93.89Z"/><path class="cls-2" d="M449.8,961.39s23.07-5.9,42,5.39c0,0-1.44,31.26-22.8,28.59C444.67,992.34,449.8,961.39,449.8,961.39Z"/><path d="M492.31,1063.4s-7.88-19.72-3-32.87,14.34-15.4,17.52-13.75,8.72,4.73,3.2,16.83S492.31,1063.4,492.31,1063.4Z"/><path class="cls-3" d="M546.29,983.18s6.79-14.26,0-32.6-11.55-75.4,29.2-72.68S619,935,614.89,962.8s2,46.87,8.83,62.49,28.53,27.17,25.13,61.82H511S504.17,1032.09,546.29,983.18Z"/><path d="M650.75,1089.2H509.11l-.22-1.84c-.07-.56-6.4-56.32,35.61-105.31.79-1.87,5.74-14.76-.18-30.75-5-13.6-9-46.38,4.3-64.12,6.21-8.33,15.3-12.16,27-11.37s21.15,5.63,28.26,14.44C618.72,908.61,620.2,941,617,963.11c-4,27.21,1.82,45.57,8.68,61.35,1.91,4.38,5.18,8.59,8.65,13,8.52,11,19.12,24.58,16.65,49.8ZM512.88,1085h134c1.63-22.33-7.69-34.32-15.94-44.93-3.64-4.67-7.07-9.09-9.19-13.95-6.77-15.57-13.13-35.3-9-63.63,3.12-21.3,1.8-52.32-12.18-69.62-6.35-7.86-14.86-12.2-25.29-12.9-10.2-.67-18.07,2.59-23.38,9.7-12.13,16.25-8.34,47.71-3.72,60.17,7,18.95.22,33.62-.07,34.23l-.13.25-.18.22C511.1,1027.25,512.21,1075.13,512.88,1085Z"/><path class="cls-3" d="M575.83,877.56s26.49,66.56,0,209.21"/><path d="M577.89,1087.15l-4.11-.77c26.07-140.42.37-207.39.11-208.05l3.89-1.55c.27.69,6.77,17.32,10.07,51.69C590.88,960.05,591.62,1013.22,577.89,1087.15Z"/><line class="cls-3" x1="611.53" y1="909.4" x2="586.55" y2="938.06"/><rect x="580.03" y="921.64" width="38.01" height="4.19" transform="translate(-490.9 768.27) rotate(-48.92)"/><line class="cls-3" x1="615.48" y1="928.43" x2="587.61" y2="960.16"/><rect x="580.43" y="942.2" width="42.23" height="4.19" transform="translate(-504.9 773) rotate(-48.7)"/><line class="cls-3" x1="541.03" y1="989.63" x2="582.75" y2="1042.52"/><rect x="559.8" y="982.4" width="4.19" height="67.36" transform="translate(-508.54 566.29) rotate(-38.27)"/><line class="cls-3" x1="532.48" y1="1002.01" x2="580.17" y2="1061.09"/><rect x="554.23" y="993.59" width="4.19" height="75.92" transform="translate(-524.54 578.43) rotate(-38.92)"/></g><g id="Clock"><path d="M367.81,390.09a76.92,76.92,0,1,1,76.92-76.92A77,77,0,0,1,367.81,390.09Zm0-149.66a72.74,72.74,0,1,0,72.73,72.74A72.82,72.82,0,0,0,367.81,240.43Z"/><polygon points="400.34 348.66 366.24 314.56 366.24 250.9 370.43 250.9 370.43 312.82 403.3 345.7 400.34 348.66"/></g><g id="Gear"><path class="cls-2" d="M832.4,720.08a72.47,72.47,0,0,0-2.62-19.38l13.28-15.09L830.54,664.4l-18.93,4.83a72.58,72.58,0,0,0-33.72-19.47l-6.19-18.9H747.07l-5.51,18.95a72.63,72.63,0,0,0-33.63,19.52L688.6,664.4l-12.51,21.21,13.65,15.52a73.05,73.05,0,0,0,.21,38.66l-13.3,13.83L688.92,775l19.16-4a72.46,72.46,0,0,0,33.07,19.25l6.4,19.32,24.63-.08,5.45-19A72.48,72.48,0,0,0,811.56,771l19.18,4L843,753.62l-13.32-13.84A72.31,72.31,0,0,0,832.4,720.08Zm-72.8,40.18a40.4,40.4,0,1,1,40.4-40.4A40.39,40.39,0,0,1,759.6,760.26Z"/></g><g id="Plant-2" data-name="Plant"><path class="cls-3" d="M952.89,1088.55s5.65-25.45-8.48-50.18c0,0-7.78-24,5-45.94s0-46.65-14.85-50.18-32.51,8.48-36.75,25.44-.7,29-26.15,41.7-24.38,79.16-24.38,79.16Z"/><path d="M954.25,1090.25H845.56l0-1.67c0-2.76-.78-67.66,25.32-80.71,19.75-9.87,21.27-18.79,23.38-31.13.51-3,1-6.11,1.88-9.46,4.44-17.74,22.93-30.46,38.8-26.68,7.38,1.75,14.36,8.41,18.2,17.37a39.06,39.06,0,0,1-2.28,35.31c-11.68,20.11-5.47,42.34-4.85,44.41,14.18,25,8.81,50.16,8.57,51.23Zm-105.32-3.4H951.47c.88-5.48,3.28-26.95-8.54-47.64l-.14-.32c-.33-1-7.86-25,5.09-47.31A35.69,35.69,0,0,0,950,959.31c-3.43-8-9.51-13.89-15.87-15.41-14.15-3.36-30.7,8.17-34.71,24.21-.8,3.22-1.32,6.26-1.83,9.21-2.1,12.31-3.92,22.95-25.21,33.59C850.37,1021.91,849,1076.54,848.93,1086.85Z"/><path d="M899.31,1089.61l-3.09-1.42c20.86-45.54,36.46-145.9,36.61-146.91l3.36.52C936,942.81,920.37,1043.63,899.31,1089.61Z"/><circle cx="1008.81" cy="997.91" r="11.05"/><path d="M952.92,1089.84l-1.47-4c33.32-12.24,53-65.34,53.15-65.88l4,1.46C1007.78,1023.69,988.07,1076.92,952.92,1089.84Z"/><rect x="912.44" y="952.03" width="3.4" height="51.74" transform="translate(-284.13 381.16) rotate(-20.46)"/><rect x="904.65" y="975.02" width="3.4" height="56.77" transform="translate(-305.57 403.79) rotate(-21.58)"/><path class="cls-2" d="M1026,1000.91s-17.15-8.95-34.2-3.53c0,0-4.66,25,12.72,26.85C1024.27,1026.35,1026,1000.91,1026,1000.91Z"/><circle cx="1052.88" cy="990.11" r="10.05"/><path d="M973.39,1073.71s9.89-14.14,8.48-25.45-8.48-14.84-11.31-14.13-7.78,2.12-5.66,12.72S973.39,1073.71,973.39,1073.71Z"/><rect x="891.1" y="1067.94" width="65.06" height="3.4" transform="translate(-453.9 753.96) rotate(-36.28)"/><rect x="918.92" y="1075.73" width="38.11" height="3.4" transform="translate(-452.25 748.88) rotate(-35.66)"/><path class="cls-3" d="M804.82,980.77s7.07-14.84,0-33.93-12-78.45,30.39-75.62,45.24,59.37,41,88.35,2.12,48.76,9.18,65,29.69,28.27,26.15,64.31H768.07S761,1031.65,804.82,980.77Z"/><path d="M913.09,1090.6H766.57l-.19-1.49c-.07-.59-1.75-14.8,2-35.49a155.71,155.71,0,0,1,35-73.77c.76-1.76,6.15-15.42-.14-32.42-5.05-13.63-9.1-48.18,4.4-66.27,6.37-8.52,15.68-12.44,27.7-11.64s21.75,5.8,29.06,14.85c15.34,19,16.86,52.5,13.5,75.44-4.16,28.44,1.9,47.61,9.06,64.1,2,4.61,5.44,9,9.07,13.68,8.81,11.33,19.77,25.42,17.22,51.48Zm-143.46-3.4H910c1.86-23.71-8-36.34-16.66-47.52-3.76-4.84-7.32-9.41-9.49-14.41-7-16.14-13.61-36.59-9.32-65.95,3.26-22.26,1.87-54.68-12.77-72.81-6.7-8.29-15.66-12.86-26.65-13.59-10.79-.72-19.11,2.74-24.74,10.28-12.74,17-8.77,50-3.94,63,7.23,19.53.24,34.62-.06,35.25l-.1.2-.15.18C767.21,1027.05,768.94,1077.91,769.63,1087.2Z"/><path d="M1040.33,1028.07s22.07,1.77,25.57-3.5-6.05-9.94-18.59-2C1045.51,1023.73,1040.33,1028.07,1040.33,1028.07Z"/><path d="M1033.5,1039.28s21.21,6.32,25.74,1.89-3.86-11-17.78-5.8C1039.46,1036.11,1033.5,1039.28,1033.5,1039.28Z"/><path d="M985.85,1091.93l-2.6-3.36c39.46-30.47,65.76-76.93,66-77.39l3.71,2.08C1052.72,1013.73,1026,1060.93,985.85,1091.93Z"/><path d="M837.24,1088.86l-3.34-.62c27.16-146.25.36-216.06.09-216.74l3.16-1.26c.28.71,7,18,10.45,53.65C850.75,956.72,851.51,1012,837.24,1088.86Z"/><rect x="839.94" y="917.21" width="39.55" height="3.4" transform="translate(-397.89 963.11) rotate(-48.92)"/><path class="cls-2" d="M1068.48,992.83s-14.6-8.52-31.1-3.21c0,0-4.24,22.73,11.57,24.42C1066.94,1016,1068.48,992.83,1068.48,992.83Z"/><rect x="840.35" y="938.61" width="43.94" height="3.4" transform="translate(-413.23 967.55) rotate(-48.7)"/><rect x="819.36" y="979.95" width="3.4" height="70.09" transform="translate(-452.19 726.57) rotate(-38.27)"/><rect x="813.57" y="991.6" width="3.4" height="79" transform="translate(-466.78 740.98) rotate(-38.92)"/></g><g id="Graphic"><rect class="cls-3" x="903.73" y="559.63" width="40.13" height="73.79"/><path d="M946,635.52H901.64v-78H946Zm-40.14-4.19h35.95v-69.6H905.82Z"/><rect class="cls-3" x="963.93" y="505.91" width="40.13" height="127.73"/><path d="M1006.15,635.73H961.83V503.82h44.32ZM966,631.55h36V508H966Z"/><rect class="cls-2" x="1032.97" y="450.24" width="40.13" height="183.4"/><polygon class="cls-2" points="1075.91 414.8 1075.41 389.18 1049.8 389.18 1049.8 395.66 1064.51 395.66 985.88 476.3 966.47 457.32 891.71 533.42 896.33 537.95 966.56 466.47 985.99 485.46 1069.15 400.17 1069.43 414.92 1075.91 414.8"/></g><g id="Floor"><rect x="127.71" y="1087.93" width="1342.71" height="4.19"/></g><path d="M632.89,318.34q110.46-1.92,221-.55t220.88,6.06q61.93,2.63,123.84,6.29c3.32.2,3.31-5,0-5.16q-110.28-6.53-220.74-9.76t-220.93-3.16q-62,0-124,1.12c-3.32.06-3.33,5.22,0,5.16Z"/><path d="M1146.11,286l32.21-2.4c3.29-.24,3.31-5.4,0-5.15l-32.21,2.39C1142.83,281.09,1142.8,286.25,1146.11,286Z"/><path d="M1146.11,316.94l32.21-2.39c3.29-.25,3.31-5.41,0-5.16l-32.21,2.4C1142.83,312,1142.8,317.19,1146.11,316.94Z"/><path d="M1143.69,302.81l45.79,4.16c3.3.3,3.28-4.86,0-5.15l-45.79-4.16C1140.39,297.36,1140.41,302.51,1143.69,302.81Z"/><path d="M652,279.06A11.44,11.44,0,0,0,641.4,286a10.27,10.27,0,0,0,2.37,12.2,12.18,12.18,0,0,0,11.56,2.35,10.32,10.32,0,0,0,6.92-9.7,11.53,11.53,0,0,0-7.18-11.12,2.59,2.59,0,0,0-3.18,1.8,2.66,2.66,0,0,0,1.81,3.17c.45.17-.41-.22,0,0l.51.28c.15.08.28.18.42.27.49.31-.23-.23.08.05s.53.48.77.75c.09.11.45.39.17.19s-.08-.11,0,0l.19.27a9,9,0,0,1,.55.95c0,.07.07.15.11.23s.18.17,0,0-.06-.16,0,0,.08.21.11.32a8,8,0,0,1,.31,1.06c0,.17.07.34.1.5.11.6,0-.37,0,.07s.05.74,0,1.1c0,.17,0,.34,0,.51a2.11,2.11,0,0,1,0,.25c0,.41,0-.15,0-.18a4.27,4.27,0,0,0-.23,1.06l-.15.47c-.18.56.16-.3,0,.08a10.71,10.71,0,0,1-.52.94c-.09.13-.41.42-.15.22s-.14.16-.24.25a3.06,3.06,0,0,1-.36.36,2.75,2.75,0,0,1-.26.22s.43-.3.19-.14-.59.4-.92.57c0,0-.45.21-.44.22s.53-.19.15-.07l-.24.08a7.61,7.61,0,0,1-1,.28l-.25.05c-.27.07.25,0,.27,0a2,2,0,0,0-.59,0,10.09,10.09,0,0,1-1.1,0l-.25,0c-.2,0-.34-.15-.08,0s.19,0,0,0l-.25-.05a8.08,8.08,0,0,1-1.08-.26l-.56-.19a1.17,1.17,0,0,1-.24-.09s.49.23.23.09-.65-.32-1-.51-.33-.21-.49-.32l-.21-.14s.4.34.2.14-.54-.47-.79-.73l-.17-.19,0-.06c-.14-.17-.15-.17,0,0s.13.19,0,0-.1-.14-.14-.21a6,6,0,0,1-.54-.95s.23.62.07.14l-.1-.27a4.26,4.26,0,0,1-.15-.54c-.05-.18-.07-.36-.12-.54s0,.23,0,.22,0-.3,0-.37c0-.4,0-.8,0-1.2s0,.25,0,.23a.62.62,0,0,1,0-.27c0-.22.09-.43.14-.64s.14-.48.23-.71.07-.17.1-.26c.11-.33-.22.39,0,.1s.43-.84.69-1.24c.06-.09.44-.61.24-.35s.2-.24.28-.32c.31-.35.69-.64,1-1s-.13.1-.15.11l.3-.22.55-.35c.21-.12.45-.21.66-.34s-.19.06-.19.07a1.4,1.4,0,0,1,.34-.13c.2-.07,1.07-.45,1.25-.33,0,0-.66,0-.13,0l.37,0c.25,0,.5,0,.76,0a2.6,2.6,0,0,0,2.58-2.58,2.64,2.64,0,0,0-2.58-2.58Z"/><path d="M688.05,279.06A11.44,11.44,0,0,0,677.5,286a10.27,10.27,0,0,0,2.37,12.2,12.2,12.2,0,0,0,11.57,2.35,10.33,10.33,0,0,0,6.91-9.7,11.51,11.51,0,0,0-7.18-11.12,2.58,2.58,0,0,0-3.17,1.8,2.64,2.64,0,0,0,1.8,3.17c.45.17-.41-.22,0,0,.17.09.35.18.51.28s.29.18.43.27c.48.31-.24-.23.07.05a9.09,9.09,0,0,1,.77.75c.09.11.45.39.18.19s-.09-.11,0,0l.19.27a8.92,8.92,0,0,1,.54.95,1.63,1.63,0,0,1,.11.23c.08.14.18.17,0,0s-.06-.16,0,0l.12.32A9.82,9.82,0,0,1,693,289c0,.17.07.34.1.5.12.6,0-.37,0,.07s.05.74.05,1.1c0,.17,0,.34,0,.51a2.11,2.11,0,0,1,0,.25c0,.41,0-.15,0-.18a4.77,4.77,0,0,0-.23,1.06l-.15.47c-.18.56.17-.3,0,.08a8.62,8.62,0,0,1-.52.94c-.09.13-.4.42-.14.22s-.15.16-.24.25a4.17,4.17,0,0,1-.37.36l-.25.22s.43-.3.19-.14-.6.4-.92.57c0,0-.45.21-.45.22s.53-.19.15-.07l-.23.08a8.16,8.16,0,0,1-1,.28l-.25.05c-.27.07.26,0,.27,0a2,2,0,0,0-.59,0,9.91,9.91,0,0,1-1.09,0l-.26,0c-.19,0-.34-.15-.08,0s.19,0,0,0l-.25-.05a7.94,7.94,0,0,1-1.07-.26l-.57-.19a.92.92,0,0,1-.23-.09s.48.23.22.09-.65-.32-1-.51l-.49-.32-.2-.14s.4.34.19.14-.54-.47-.79-.73l-.17-.19,0-.06c-.14-.17-.14-.17,0,0s.13.19,0,0l-.14-.21a5.22,5.22,0,0,1-.53-.95s.22.62.06.14l-.1-.27a4.26,4.26,0,0,1-.15-.54c-.05-.18-.07-.36-.11-.54s0,.23,0,.22,0-.3,0-.37c0-.4,0-.8,0-1.2s0,.25,0,.23a.81.81,0,0,1,0-.27c0-.22.09-.43.14-.64s.15-.48.23-.71.07-.17.1-.26c.11-.33-.21.39,0,.1s.43-.84.69-1.24c.06-.09.44-.61.24-.35s.2-.24.28-.32c.32-.35.69-.64,1-1s-.14.1-.16.11l.31-.22c.17-.12.36-.24.55-.35s.45-.21.65-.34-.18.06-.19.07a1.4,1.4,0,0,1,.34-.13c.2-.07,1.07-.45,1.25-.33,0,0-.66,0-.13,0l.37,0c.26,0,.51,0,.76,0a2.6,2.6,0,0,0,2.58-2.58,2.64,2.64,0,0,0-2.58-2.58Z"/><path d="M724.15,279.06A11.42,11.42,0,0,0,713.61,286a10.27,10.27,0,0,0,2.36,12.2,12.2,12.2,0,0,0,11.57,2.35,10.3,10.3,0,0,0,6.91-9.7,11.51,11.51,0,0,0-7.18-11.12,2.58,2.58,0,0,0-3.17,1.8,2.64,2.64,0,0,0,1.8,3.17c.45.17-.41-.22,0,0l.52.28c.14.08.28.18.42.27.48.31-.24-.23.07.05s.53.48.78.75c.09.11.45.39.17.19s-.09-.11,0,0l.19.27a8.92,8.92,0,0,1,.54.95l.12.23c.07.14.17.17,0,0s-.06-.16,0,0l.12.32a9.82,9.82,0,0,1,.3,1.06c0,.17.07.34.1.5.12.6,0-.37,0,.07s0,.74,0,1.1c0,.17,0,.34,0,.51a2.11,2.11,0,0,0,0,.25c0,.41,0-.15,0-.18a5.41,5.41,0,0,0-.23,1.06c0,.16-.1.31-.15.47-.18.56.17-.3,0,.08s-.34.64-.53.94c-.08.13-.4.42-.14.22s-.15.16-.24.25a4.17,4.17,0,0,1-.37.36l-.25.22s.43-.3.19-.14-.6.4-.92.57c0,0-.45.21-.45.22s.53-.19.15-.07l-.23.08a7.37,7.37,0,0,1-1.05.28l-.25.05c-.26.07.26,0,.27,0a1.9,1.9,0,0,0-.58,0,10.09,10.09,0,0,1-1.1,0l-.26,0c-.19,0-.34-.15-.07,0s.18,0,0,0l-.25-.05a7.94,7.94,0,0,1-1.07-.26l-.56-.19a.85.85,0,0,1-.24-.09s.48.23.22.09-.65-.32-1-.51l-.5-.32-.2-.14s.4.34.19.14-.54-.47-.79-.73l-.17-.19-.05-.06c-.14-.17-.14-.17,0,0s.13.19,0,0-.09-.14-.14-.21a5.22,5.22,0,0,1-.53-.95s.22.62.06.14l-.09-.27a4.26,4.26,0,0,1-.16-.54c0-.18-.07-.36-.11-.54s0,.23,0,.22,0-.3,0-.37c0-.4,0-.8,0-1.2s0,.25,0,.23a.81.81,0,0,1,0-.27c0-.22.09-.43.15-.64s.14-.48.22-.71.07-.17.1-.26c.11-.33-.21.39,0,.1s.42-.84.68-1.24c.07-.09.44-.61.24-.35s.21-.24.28-.32c.32-.35.69-.64,1-1s-.14.1-.16.11l.31-.22c.18-.12.36-.24.55-.35s.45-.21.65-.34-.18.06-.19.07a1.48,1.48,0,0,1,.35-.13c.2-.07,1.06-.45,1.25-.33,0,0-.66,0-.14,0l.38,0c.25,0,.5,0,.75,0a2.6,2.6,0,0,0,2.58-2.58,2.64,2.64,0,0,0-2.58-2.58Z"/><path d="M1245.69,850.18H613.21A30.2,30.2,0,0,1,583,820V256.3a30.21,30.21,0,0,1,30.17-30.17h632.48a30.21,30.21,0,0,1,30.17,30.17V820A30.19,30.19,0,0,1,1245.69,850.18ZM613.21,229.57a26.77,26.77,0,0,0-26.73,26.73V820a26.77,26.77,0,0,0,26.73,26.73h632.48A26.77,26.77,0,0,0,1272.42,820V256.3a26.76,26.76,0,0,0-26.73-26.73Z"/><polygon class="cls-4" points="722.66 513.07 722.65 513.07 722.67 513.07 722.66 513.07"/><path class="cls-4" d="M722.68,513.06h0Z"/><path class="cls-4" d="M722.67,513.06h0Z"/><path class="cls-4" d="M722.68,513.07h0Z"/><polygon class="cls-4" points="722.67 513.06 722.67 513.06 722.67 513.07 722.67 513.06"/><polygon class="cls-4" points="832.69 464.93 832.68 464.94 832.69 464.93 832.69 464.93"/><path class="cls-4" d="M832.7,464.93h0Z"/><polygon class="cls-4" points="832.7 464.93 832.7 464.93 832.7 464.93 832.7 464.93"/><path class="cls-4" d="M832.7,464.93Z"/><path class="cls-4" d="M832.7,464.93Z"/><polygon class="cls-4" points="939.28 489 939.28 489 939.29 489 939.28 489"/><polygon class="cls-4" points="939.27 489 939.27 489 939.28 489 939.27 489"/><path class="cls-4" d="M939.29,489Z"/><path class="cls-4" d="M939.29,489h0Z"/><path class="cls-4" d="M939.29,489Z"/><polygon class="cls-4" points="1047.58 435.71 1047.57 435.71 1047.59 435.71 1047.58 435.71"/><path class="cls-4" d="M1047.59,435.7h0Z"/><path class="cls-4" d="M1047.59,435.71Z"/><path class="cls-4" d="M1047.6,435.7h0Z"/><polygon class="cls-4" points="1047.59 435.7 1047.59 435.7 1047.59 435.7 1047.59 435.7"/><path class="cls-4" d="M1149,470.09Z"/><polygon class="cls-4" points="1149.01 470.09 1149 470.09 1149.02 470.09 1149.01 470.09"/><polygon class="cls-4" points="1149.02 470.08 1149.02 470.08 1149.02 470.09 1149.02 470.08"/><path class="cls-4" d="M1149,470.09Z"/><path class="cls-4" d="M1149,470.09Z"/><path d="M1121.21,548.87l-79.93,4.45a1.76,1.76,0,0,1-.38-3.5l81.7-13.3Z"/><path class="cls-1" d="M1222.8,726.83l30.12-50.67,22.27,10.51s-38.37,47.92-39.59,49.3a11.79,11.79,0,1,1-14.09-8.92,11.59,11.59,0,0,1,1.29-.22Z"/><path d="M1224.1,751.84a13.29,13.29,0,0,1-2.91-26.25c.22-.06.46-.1.69-.14l30.45-51.23,25.21,11.91-1.18,1.48c-1.49,1.85-34.6,43.21-39.15,48.77a13.32,13.32,0,0,1-10.2,15.14A13.17,13.17,0,0,1,1224.1,751.84Zm29.41-73.74-29.8,50.14-.75.09a10.87,10.87,0,0,0-1.12.18,10.29,10.29,0,1,0,12.3,7.79l-.17-.75.51-.58c.92-1,24.82-30.86,38.35-47.75Z"/><path class="cls-1" d="M1235.33,609.11l48.8,25.47a27,27,0,0,1,6.13,37.71c-.49.68-1,1.33-1.55,2l-33.65,38.6L1240.4,693l11.3-23.62-21.87-5.76Z"/><path d="M1255,715.24l-16.3-22.09,10.91-22.8-21.36-5.63,5.85-58,51,26.6a28.55,28.55,0,0,1,6.47,39.81c-.52.71-1.07,1.41-1.64,2.07Zm-12.81-22.42,13,17.63,32.41-37.18c.52-.59,1-1.22,1.47-1.86a25.49,25.49,0,0,0-5.7-35.55l-46.74-24.39-5.15,51,22.39,5.91Z"/><path class="cls-1" d="M1096.26,549.7l-5.5,58.7-24.62,0s14.12-59.73,14.64-61.5a11.79,11.79,0,1,1,16.55,2,12.75,12.75,0,0,1-1.07.74Z"/><path d="M1064.24,609.94l.44-1.84c.54-2.32,12.74-53.87,14.47-60.84a13.29,13.29,0,1,1,19.1,2.88l-.57.42-5.55,59.34Zm25.8-80.56A10.29,10.29,0,0,0,1082,546l.47.61-.21.74c-.39,1.33-9.2,38.52-14.19,59.58l21.36,0,5.44-58.08.64-.39c.32-.2.63-.42.93-.65a10.29,10.29,0,0,0-5.09-18.32A11,11,0,0,0,1090,529.38Z"/><path class="cls-1" d="M1145.27,669.74l-56.67-10.4c-23.87-2.87-33.66-18.57-29.36-33.88l13.86-49.29,21.76,11.66-.09,26.18,30.45-4.16Z"/><path d="M1147.5,671.67l-59.17-10.85c-12.37-1.49-22.13-6.64-27.38-14.51a25.36,25.36,0,0,1-3.15-21.26L1072.16,574l24.2,13-.08,25.35,30-4.09ZM1074,578.37l-13.35,47.49a22.4,22.4,0,0,0,2.76,18.79c4.76,7.12,13.75,11.81,25.33,13.2L1143,667.8l-18.84-56.29-30.93,4.22.08-27Z"/><polygon class="cls-1" points="1122.07 1075.38 1106.49 1075.38 1099.07 1015.27 1122.07 1015.27 1122.07 1075.38"/><path d="M1123.57,1076.88h-18.41l-7.78-63.11h26.19Zm-15.76-3h12.76v-57.11h-19.8Z"/><path d="M1122.62,1091.64H1074.7v-.6a18.65,18.65,0,0,1,18.65-18.65h0l8.76-6.64,16.33,6.64h4.18Z"/><polygon class="cls-1" points="1232.33 1075.38 1247.91 1075.38 1255.32 1015.27 1232.32 1015.27 1232.33 1075.38"/><path d="M1249.24,1076.88h-18.41v-63.11H1257Zm-15.41-3h12.75l7.05-57.11h-19.81Z"/><path d="M1231.78,1091.64h47.92v-.6a18.65,18.65,0,0,0-18.65-18.65h0l-8.75-6.64-16.33,6.64h-4.18Z"/><path d="M1098.39,971.11c.23-3.43,2.06-22.4,2.06-22.4l4.38-40.22,7.73-106.63,6.88-28,34.09,13.28,27.65-13.26,32.87,10.51,25.6,9.6s0,4.11.24,9.07c.26,6.5.72,14.47,1.82,16.54,1.83,3.66,1.37,23.3,1.37,23.3s1.82,40,4.11,44.36,2.75,13.51,2.06,15.34,2.29,49.83,2.29,49.83,7.65,84.95,2.85,97.76-22.94,4.42-22.94,4.42.88-3.42-4.38-5-21.28-122.07-21.28-122.07-3-24.69-5.72-31.77-5.26-27-5.26-27-16.92-32.91-17.14-40.23c0,0-2.21-6.85-4.3.69s-8.26,25.6-8.26,25.6l-6,22.17L1152,910.11,1147.43,938s-6.86,37-8,38.63,0,35.42,0,35.42-5.3,28.81-12.8,33.84-27.35.08-27.35.08S1098.16,974.53,1098.39,971.11Z"/><path class="cls-1" d="M1123.87,683.65l-4.36,56.42-6.54,6.78a6.31,6.31,0,0,0,.15,8.92l.18.16h0l-3.6,6.18-1.28,19.48a10.59,10.59,0,0,0,7.82,12.77,10.16,10.16,0,0,0,2,.28l112.83,5.3a10.58,10.58,0,0,0,11.07-10.08A10.87,10.87,0,0,0,1242,788l-9.6-72.23v-5.4l-4.29-10.43,2.21-34.94,5.13-55.45-29.85-7.71-16.18-11.14-28.12.45-17.06,14-22.74,3.56-17.21,3.42-2.19,4.76,4.38-1,15.89,62Z"/><path d="M1231.56,801.45H1231l-112.83-5.3a12.31,12.31,0,0,1-2.26-.32,12.11,12.11,0,0,1-9-14.45l1.29-19.71,3.22-5.51a7.82,7.82,0,0,1,.45-10.35l6.17-6.38,4.29-55.64-1.39-5.53-15.53-60.56-5.91,1.29,3.77-8.19,18-3.57,22.41-3.51,17.15-14.08,29.12-.47,16.36,11.26,30.82,8-5.25,56.73-2.18,34.55,4.27,10.39v5.6l9.59,72.12a13,13,0,0,1,.09,2.16,12.09,12.09,0,0,1-12.06,11.52Zm-120.39-38.89-1.29,19.38a9.1,9.1,0,0,0,6.71,11,8.93,8.93,0,0,0,1.7.24l112.83,5.3a9.07,9.07,0,0,0,9.5-8.65,8.79,8.79,0,0,0-.07-1.62l-9.61-72.43v-5.1l-4.31-10.48,2.23-35.28,5-54.23L1205,603.19l-16-11-27.11.43-17,13.94-23.15,3.62-16.39,3.26-.62,1.34,2.86-.62,17.76,69.37L1121,740.73l-6.92,7.16a4.81,4.81,0,0,0,.12,6.8l1,.94Z"/><circle class="cls-1" cx="1174.77" cy="549.99" r="33.12"/><path d="M1174.77,584.61A34.62,34.62,0,1,1,1209.39,550,34.66,34.66,0,0,1,1174.77,584.61Zm0-66.24A31.62,31.62,0,1,0,1206.39,550,31.66,31.66,0,0,0,1174.77,518.37Z"/><path d="M1168.64,584.46l25.1-1.28c3.21-.17,6.72-.45,9.06-2.66a13.8,13.8,0,0,0,2.85-4.73c2.32-5.39,4.64-10.78,6.9-16.2,3.13-7.49,6.2-15.4,5.4-23.47a15,15,0,0,0-4.34-9.8,8.3,8.3,0,0,0-10.08-1,17,17,0,0,0-8.46-12.28,26.12,26.12,0,0,0-14.9-3.16,35.92,35.92,0,0,0-20.48,8.07,44.34,44.34,0,0,1-5.22,4.14,8.22,8.22,0,0,1-6.38,1.18,4.62,4.62,0,0,1-3.39-5,8.89,8.89,0,0,0-2.27,11.72,8.17,8.17,0,0,1-8-1,9.79,9.79,0,1,0,8.7,17.54,9.67,9.67,0,0,0,1.56-1c1.53,2.14,1,5,.76,7.65s.5,5.86,3,6.58c3.41,1,6.17-3.61,9.71-3.56a5.35,5.35,0,0,1,4.23,2.73,15.72,15.72,0,0,1,1.69,4.94l4.54,20.42"/><path class="cls-4" d="M324.5,573.59,326,487.3c.06-3.53-5.42-3.53-5.48,0L319,573.59C319,577.12,324.44,577.12,324.5,573.59Z"/><polygon class="cls-4" points="322.68 475.37 322.67 475.37 322.69 475.37 322.68 475.37"/><path class="cls-4" d="M322.7,475.36Z"/><path class="cls-4" d="M322.69,475.36h0Z"/><path class="cls-4" d="M322.7,475.36h0Z"/><polygon class="cls-4" points="439.6 424.21 439.59 424.22 439.61 424.21 439.6 424.21"/><path class="cls-4" d="M439.61,424.21Z"/><polygon class="cls-4" points="439.61 424.21 439.61 424.21 439.61 424.21 439.61 424.21"/><path class="cls-4" d="M439.62,424.21h0Z"/><path class="cls-4" d="M439.61,424.21h0Z"/><path class="cls-1" d="M572.11,625.21H545.75a1.65,1.65,0,1,1,0-3.29h26.39a1.65,1.65,0,0,1,0,3.29Z"/><path class="cls-1" d="M572.11,638.4H545.75a1.65,1.65,0,0,1,0-3.3h26.39a1.65,1.65,0,0,1,0,3.3Z"/><path class="cls-1" d="M572.11,651.58H545.75a1.65,1.65,0,0,1,0-3.3h26.39a1.65,1.65,0,0,1,0,3.3Z"/><path class="cls-1" d="M334,793.26a12.14,12.14,0,0,0,0-17.17,12.76,12.76,0,0,0-1.65-1.37l19.34-96-21.35,6.85-15.48,92.88A12.21,12.21,0,0,0,334,793.26Z"/><path d="M325.33,798.43a13.73,13.73,0,0,1-11.91-20.52L329,684.41l24.65-7.92L334,774.09a11.73,11.73,0,0,1,1.05.94,13.73,13.73,0,0,1-9.72,23.4Zm6.33-111.73L316.29,779l-.15.24a10.71,10.71,0,0,0,16.82,13h0a10.65,10.65,0,0,0,0-15.05,11,11,0,0,0-1.44-1.2l-.81-.56,19-94.48Z"/><path class="cls-2" d="M362.58,590.11l-13.25-10s-11.68-.83-13.75,20.24-6.32,62.14-6.32,62.14L309,756.37l28.06,6.16,21.71-101.31,13-30.09Z"/><polygon class="cls-1" points="340.74 743.4 415.38 742.15 421.6 691.15 340.74 691.15 340.74 743.4"/><path d="M339.24,744.92V689.65h84.05l-6.58,54Zm3-52.27v49.22l71.81-1.19,5.86-48Z"/><polygon class="cls-1" points="407.92 1057.26 425.15 1057.26 433.34 990.79 407.91 990.8 407.92 1057.26"/><path d="M426.47,1058.76H406.42V989.3H435Zm-17.05-3h14.4l7.83-63.47H409.41Z"/><polygon class="cls-1" points="299.97 1058.85 317.2 1058.73 324.93 992.21 302.52 997.36 299.97 1058.85"/><path d="M298.4,1060.37l2.67-64.22,25.59-5.87-8.13,69.94ZM304,998.56l-2.44,58.78,14.33-.1,7.33-63.09Z"/><polygon class="cls-5" points="353.86 647.23 349.95 657.38 350.74 667.53 427.15 693.99 423.36 649.57 414.77 639.42 353.86 647.23"/><circle class="cls-1" cx="386.64" cy="528.58" r="27.29"/><path d="M386.64,557.38a28.8,28.8,0,1,1,28.79-28.8A28.82,28.82,0,0,1,386.64,557.38Zm0-54.59a25.8,25.8,0,1,0,25.79,25.79A25.82,25.82,0,0,0,386.64,502.79Z"/><path d="M403.64,1048.76l27.24-1.63v11.67l25.9,17.89a7.29,7.29,0,0,1-4.15,13.29H420.21l-5.59-11.55L412.43,1090H400.21Z"/><path d="M294.07,1050.39l27.23-1.81.08,11.67,26,17.7a7.29,7.29,0,0,1-4,13.32l-32.43.22-5.67-11.5-2.1,11.56-12.22.09Z"/><path class="cls-1" d="M294.6,1007.9l12.55-100.29,14.93-105.74c-10.93-20.31,13.68-83.35,13.68-83.35l3.48.16,78.64,14.84v-.07C434,777.32,439.28,799,438.4,845.71l-3.17,168h1a6.22,6.22,0,0,1,0,12.44h-31.1a6.22,6.22,0,0,1,0-12.44h.83l-28.55-200-24.2,84-27.37,109.47c9.95-2.48,8.41,3.28,8.41,6.55a6.23,6.23,0,0,1-6.22,6.22H296.9a6.21,6.21,0,0,1-2.3-12Z"/><path d="M405.11,1027.61a7.72,7.72,0,0,1-.9-15.39l-27.32-191.4-22.27,77.25-26.78,107.11c2.81-.41,4.79-.07,6.15,1.05,2,1.64,1.87,4.34,1.77,6.32,0,.39,0,.77,0,1.12a7.73,7.73,0,0,1-7.72,7.72H296.89a7.72,7.72,0,0,1-3.67-14.5l12.44-99.47,14.87-105.29C310,781,333.36,720.55,334.37,718l.39-1,4.76.24,78.64,14.84-.25,1.32,1.37-.44c16.5,45,21.5,66.44,20.62,112.81l-3.14,166.44a7.72,7.72,0,0,1-.53,15.43H405.11Zm0-12.44a4.72,4.72,0,1,0,0,9.44h31.11a4.72,4.72,0,0,0,0-9.44H433.7l3.2-169.48c.86-45.59-4-66.84-20.12-110.85l-77.72-14.66-2.28-.11c-3.06,8.12-23.12,63-13.38,81.08l.23.44-15,106.22L296,1009l-.82.33a4.72,4.72,0,0,0,1.73,9.1H328a4.73,4.73,0,0,0,4.72-4.72c0-.4,0-.83,0-1.27.07-1.49.16-3.17-.67-3.85-.51-.42-1.94-1-5.91,0l-2.43.61,28-111.9,26.16-90.74,29.78,208.62Z"/><path class="cls-2" d="M329.64,721.78l2.49-24.88a5,5,0,0,1,4.48-3.72c1-11.85,5.4-63,5.66-65.21v-.1l2-42.37a6.24,6.24,0,0,1,5.84-6l10.48-.69a.55.55,0,0,0,.54-.55,8.8,8.8,0,0,1,8.81-8.81h31a8.24,8.24,0,0,1,8.18,7.22.55.55,0,0,0,.56.49h0a14.73,14.73,0,0,1,14.82,12.22c4.24,24.67,12.74,80.66,8.54,111.79-1.46,10.84,1.69,2.25,2.24,11.32a6.66,6.66,0,0,1-1.66,4.84,4.81,4.81,0,0,1,2.9,6.11l.54-.13a5,5,0,0,1-6,3.61h0l-81.14,11C347.23,737.29,329,724.45,329.64,721.78Z"/><path class="cls-1" d="M546.46,620.63a12.14,12.14,0,0,1-15.11,8.15,11.78,11.78,0,0,1-2-.79L498,656.62l-4.16-22,30.44-23.74a12.21,12.21,0,0,1,22.19,9.78Z"/><path d="M497,659.54,492.18,634l30.95-24.13a13.71,13.71,0,1,1,7.79,20.38c-.43-.13-.86-.28-1.28-.45Zm-1.55-24.33L499,653.7l30.14-27.51.93.46a10.54,10.54,0,0,0,1.74.7A10.65,10.65,0,0,0,545,620.2h0a10.71,10.71,0,0,0-19.46-8.58l-.14.25Z"/><path class="cls-2" d="M437.28,598.75S426.34,574,412.53,578.94s-6.69,28.9-6.69,28.9l51.91,78.21s74.86-48,65.76-48.37-11.83-16.89-11.83-16.89l-39.57,19.77-1.34-7-2.14,2.15-5.54-4.36Z"/><path d="M354.52,511.87c-4.19,2-8.87-1-12.48-4l1.29,1.11c-6.39,6.22-9.37,15.16-10.83,24s-1.63,17.78-3.47,26.51-5.65,17.48-12.78,22.82c-9.56,7.15-22.73,6.69-34.45,4.5l-.46-.09a71.77,71.77,0,0,0,3.77-28.37,65.07,65.07,0,0,1-15.63,25.6,148.91,148.91,0,0,1-22.68-8.26c-4.74-2.18-9.85-5.17-11.16-10.22s1.74-10.27,5.84-13.44,9.12-4.81,13.79-7.07,9.26-5.44,11.13-10.28c4.3-11.11-7.95-23.86-3.18-34.79,2.36-5.37,8.13-8.3,13.55-10.55a197.57,197.57,0,0,1,25.44-8.58c7.6-2,15.54-3.56,23.29-2.25s15.34,6,18.13,13.39c4.65,1.57,9.59,3.34,12.58,7.26S359,509.75,354.52,511.87Z"/><path d="M391.76,499c-12-9.45-21.65-7.83-29.12-2-1.26-1.4-6.6,2.44-8.41,1.89l-6.54,12.29c-3.37,5.94-4.75,12-4.21,15.42-6.19,17.37,8.5,29.1,25.87,35.29a33.1,33.1,0,0,0,21.49.31l.21-3,1.32,2.43s15.88,32.69,19.63,34.16c-2.28-5.91-8.28-34-10-39.83-2.3-8-.73-20.61.62-28.36a43.59,43.59,0,0,0,.13-14.46l0-.21,3.72,7.5,8.33-5.25C411.63,506,411.56,494.87,391.76,499Z"/></svg>